<?xml version="1.0" encoding="UTF-8"?> <svg xmlns="http://www.w3.org/2000/svg" width="551.336" height="494.461" viewBox="0 0 551.336 494.461"><defs><style>.a{fill:#72b5e8;}.b{fill:#a8cff0;}.c{fill:#d1ebff;}.d,.g{fill:#fff;}.e{fill:#eb4680;}.f{fill:#d62d69;}.g{opacity:0.7;}.h{fill:#3f92d1;}.i{fill:#4f9fdb;}.j{fill:#03336e;}.k{fill:#001a46;}.l{fill:#2672ab;}.m{fill:#084c94;}.n{fill:#0fbab8;}.o{fill:#0ba19f;}.p{fill:#fc0;}.q{fill:#ffd70f;}.r{fill:#ffde17;}.s{fill:#3ecfcd;}.t{fill:#f76195;}.u{fill:#e9f0f6;}</style></defs><g transform="translate(0 -0.042)"><g transform="translate(0 0.042)"><path class="a" d="M600.3,258.67c-12.411-7.177-22.488-24.546-22.488-38.8,0-5.282,1.393-9.381,3.775-12.087-6.821.486-11.341,6.189-11.341,15.829,0,14.258,10.061,31.626,22.488,38.8,7.809,4.5,14.582,3.888,18.7-.713a19.6,19.6,0,0,1-11.131-3.03Z" transform="translate(-133.413 27.919)"></path><path class="b" d="M628.472,262.454a42.134,42.134,0,0,0-.389-5.46l9.106-1.15a82.362,82.362,0,0,0-4.132-13.772L622.7,238.945a73.941,73.941,0,0,0-6.481-11.131l2.479-10.45a82.634,82.634,0,0,0-9.932-10.466l-5.574,7.226a42.4,42.4,0,0,0-4.553-3.078,34.276,34.276,0,0,0-4.569-2.187L588.5,195.2a27.542,27.542,0,0,0-9.932-1l2.495,13.318a14.29,14.29,0,0,0-6.481,3.678l-10.369-8.83a27.137,27.137,0,0,0-4.115,9.008l9.089,11.649a35.117,35.117,0,0,0-.389,5.023,44.645,44.645,0,0,0,.389,5.444l-9.089,1.15a81.377,81.377,0,0,0,4.115,13.772l10.369,3.143a71.111,71.111,0,0,0,6.481,11.115l-2.495,10.466a83.492,83.492,0,0,0,9.932,10.45l5.573-7.21a48.006,48.006,0,0,0,4.569,3.078,36.254,36.254,0,0,0,4.553,2.187l5.574,13.658a27.544,27.544,0,0,0,9.932.988l-2.446-13.237a14.306,14.306,0,0,0,6.481-3.678l10.353,8.83a26.844,26.844,0,0,0,4.131-9.008l-9.105-11.649A32.534,32.534,0,0,0,628.472,262.454Zm-29.52,8.441c-12.427-7.177-22.488-24.546-22.488-38.8s10.062-19.993,22.488-12.832,22.5,24.546,22.5,38.885S611.379,278.072,598.952,270.895Z" transform="translate(-139.708 19.44)"></path><path class="a" d="M291.77,142.882,286.2,129.24l-8.717,4.99,5.573,13.658Z" transform="translate(171.347 80.334)"></path><path class="c" d="M581.09,205.126a34.271,34.271,0,0,1,4.569,2.187,42.412,42.412,0,0,1,4.552,3.078l5.573-7.226h0l-1.409-.859a34.262,34.262,0,0,0-4.569-2.187Z" transform="translate(-126.69 23.124)"></path><path class="c" d="M590.138,192.109a27.542,27.542,0,0,0-9.932-1l-8.717,5.006a27.544,27.544,0,0,1,9.932,1Z" transform="translate(-132.513 17.457)"></path><path class="c" d="M608.808,209.376a82.631,82.631,0,0,0-9.932-10.466l-8.716,5.006a82.625,82.625,0,0,1,9.932,10.466Z" transform="translate(-121.065 22.374)"></path><path class="a" d="M297.075,147.926l-2.5,10.45,8.717-5.006,2.479-10.45Z" transform="translate(181.952 88.843)"></path><path class="a" d="M594.76,216.826a73.932,73.932,0,0,1,6.481,11.131l8.717-5.006a73.937,73.937,0,0,0-6.481-11.131Z" transform="translate(-118.212 30.406)"></path><path class="c" d="M298.56,161.246l10.369,3.127,8.717-5.006-10.369-3.127Z" transform="translate(184.42 97.125)"></path><path class="a" d="M605.13,225.626a82.362,82.362,0,0,1,4.131,13.772l8.717-5.006a82.349,82.349,0,0,0-4.131-13.772Z" transform="translate(-111.781 35.882)"></path><path class="a" d="M579.5,206.269l-.729-3.872L571.4,196.11l-8.717,5.006,10.369,8.83a14.29,14.29,0,0,1,6.448-3.678Z" transform="translate(-137.955 20.631)"></path><path class="a" d="M609.261,248.486a26.849,26.849,0,0,1-4.131,9.008l8.717-5.006a26.853,26.853,0,0,0,4.131-9.008Z" transform="translate(-111.781 50.1)"></path><path class="a" d="M610.752,238.827a34.707,34.707,0,0,0,.389-5.006c0-.535,0-1.069,0-1.62l-9.041,1.134a42.1,42.1,0,0,1,.389,5.46,32.5,32.5,0,0,1-.389,5.006Z" transform="translate(-113.66 43.081)"></path><path class="c" d="M301.89,178.846l9.089,11.649,8.717-5.006-9.089-11.649Z" transform="translate(186.485 108.079)"></path><path class="a" d="M601.221,246.68a14.307,14.307,0,0,1-6.481,3.678l2.479,13.318,8.717-5.006-1.766-9.446Z" transform="translate(-118.224 52.093)"></path><path class="c" d="M568.905,216l-8.765,5.136,9.089-1.15C569.051,218.56,568.954,217.231,568.905,216Z" transform="translate(-139.516 33)"></path><path class="a" d="M583.223,244.88l-5.573,7.21,8.781-4.99C585.346,246.4,584.276,245.674,583.223,244.88Z" transform="translate(-128.823 50.966)"></path><g transform="translate(420.894 213.499)"><path class="d" d="M572.865,202.816v-.146c-.421.162-.826.356-1.215.551a10.93,10.93,0,0,1,1.215-.405Z" transform="translate(-553.439 -188.747)"></path><path class="d" d="M567.96,218.51l-7.55.956a4.247,4.247,0,0,0,.1.438l7.485-.956C567.976,218.8,567.976,218.656,567.96,218.51Z" transform="translate(-560.41 -178.923)"></path><path class="d" d="M599.6,213.046l-2.495,10.45a72.656,72.656,0,0,1,6.481,11.131l10.353,3.127a82.983,82.983,0,0,1,4.018,13.334l1.037-.162a81.45,81.45,0,0,0-4.131-13.772l-10.4-3.143a73.774,73.774,0,0,0-6.481-11.115l2.479-10.466a83.514,83.514,0,0,0-9.932-10.45l-.34,1.15A83.865,83.865,0,0,1,599.6,213.046Z" transform="translate(-541.941 -189.175)"></path><path class="d" d="M593.067,261.451c-12.427-7.177-22.5-24.562-22.5-38.885,0-6.286,1.977-10.9,5.249-13.5-3.775,2.43-6.092,7.291-6.092,14.112,0,14.258,10.061,31.626,22.488,38.885,6.27,3.629,11.941,3.953,16.024,1.62l-.924.211C603.42,265.226,598.478,264.562,593.067,261.451Z" transform="translate(-554.636 -184.778)"></path><path class="d" d="M595.79,249.675a13.819,13.819,0,0,0,4.1-2.3l-.389-.324a14.049,14.049,0,0,1-3.71,2.625Z" transform="translate(-538.468 -161.223)"></path><path class="d" d="M572.63,208.285c-.373,0,0-.292.389-.6l-9.9-8.506c-.275.389-.535.81,0,.875Z" transform="translate(-558.923 -190.911)"></path><path class="d" d="M594.632,249.518l2.382,12.751h.794L595.281,249C594.859,249.211,594.341,249.389,594.632,249.518Z" transform="translate(-539.238 -160.013)"></path><path class="d" d="M603.047,238.176a40.87,40.87,0,0,0-.34-5.006H601.8a42.135,42.135,0,0,1,.389,5.46,32.477,32.477,0,0,1-.388,5l9.1,11.656a27.543,27.543,0,0,1-3.24,7.777v.729a27.157,27.157,0,0,0,4.132-9.008l-9.105-11.665a32.54,32.54,0,0,0,.356-4.942Z" transform="translate(-534.74 -169.831)"></path><path class="d" d="M580.9,195.573l5.59,13.658a36.226,36.226,0,0,1,4.553,2.187,48.034,48.034,0,0,1,4.569,3.078l.162-.859a42.137,42.137,0,0,0-3.9-2.625,36.41,36.41,0,0,0-4.569-2.187l-5.573-13.658a27.949,27.949,0,0,0-9.932-1l.113.583A32.308,32.308,0,0,1,580.9,195.573Z" transform="translate(-553.352 -194.077)"></path><path class="d" d="M582.226,245.25l-4.666,6.076.583.551,4.731-6.108Z" transform="translate(-549.774 -162.339)"></path></g><path class="a" d="M604.169,202.442c-18.7-10.79-33.846-36.924-33.846-58.327,0-7.955,2.106-14.112,5.687-18.195-10.256.745-17.19,9.332-17.19,23.833,0,21.435,15.149,47.569,33.846,58.327,11.73,6.789,22.051,5.849,28.11-1.069a29.439,29.439,0,0,1-16.607-4.569Z" transform="translate(-140.502 -23.012)"></path><path class="b" d="M646.474,208.134a64.444,64.444,0,0,0-.583-8.2l13.691-1.734a123.126,123.126,0,0,0-6.205-20.706l-15.586-4.65a109.733,109.733,0,0,0-9.721-16.737l3.743-15.732a124.431,124.431,0,0,0-14.938-15.732L608.48,135.5a67.864,67.864,0,0,0-6.854-4.634,52.526,52.526,0,0,0-6.853-3.24l-8.425-20.657a41.574,41.574,0,0,0-14.938-1.507l3.743,20.042a21.532,21.532,0,0,0-9.721,5.541l-15.586-13.286A40.6,40.6,0,0,0,543.64,131.3l13.691,17.531a50.056,50.056,0,0,0-.583,7.534,64.4,64.4,0,0,0,.583,8.2l-13.626,1.8a123.152,123.152,0,0,0,6.206,20.706l15.586,4.715a109.722,109.722,0,0,0,9.721,16.737l-3.743,15.732a125.564,125.564,0,0,0,14.873,15.667l8.393-10.855a67.881,67.881,0,0,0,6.853,4.634,52.527,52.527,0,0,0,6.853,3.24l8.393,20.544a41.606,41.606,0,0,0,14.938,1.507l-3.743-20.042a21.533,21.533,0,0,0,9.721-5.541l15.586,13.286a40.6,40.6,0,0,0,6.205-13.545l-13.69-17.53a50.107,50.107,0,0,0,.616-7.485Zm-44.393,12.7c-18.7-10.79-33.846-36.924-33.846-58.327s15.149-30.087,33.846-19.3,33.846,36.924,33.846,58.327-15.165,30.1-33.846,19.3Z" transform="translate(-149.916 -35.927)"></path><path class="a" d="M291.36,59.784,282.967,39.24,269.86,46.774l8.376,20.544Z" transform="translate(166.752 24.268)"></path><path class="c" d="M575.21,121.878a52.53,52.53,0,0,1,6.853,3.24,67.879,67.879,0,0,1,6.853,4.634l8.392-10.855h0s-1.409-.891-2.139-1.3a52.689,52.689,0,0,0-6.853-3.24Z" transform="translate(-130.337 -30.225)"></path><path class="c" d="M588.855,102.317a41.883,41.883,0,0,0-14.922-1.507l-13.124,7.534a41.574,41.574,0,0,1,14.938,1.507Z" transform="translate(-139.123 -38.809)"></path><path class="c" d="M616.9,128.292a124.35,124.35,0,0,0-14.938-15.732l-13.107,7.534a124.419,124.419,0,0,1,14.938,15.732Z" transform="translate(-121.877 -31.343)"></path><path class="a" d="M299.316,67.354,295.59,83.07,308.7,75.552,312.44,59.82Z" transform="translate(182.578 37.148)"></path><path class="a" d="M595.76,139.514a109.727,109.727,0,0,1,9.721,16.737l13.107-7.534a109.706,109.706,0,0,0-9.721-16.737Z" transform="translate(-117.592 -19.261)"></path><path class="c" d="M301.58,87.378l15.586,4.715,13.107-7.518L314.687,79.86Z" transform="translate(186.293 49.612)"></path><path class="a" d="M611.37,152.754a123.128,123.128,0,0,1,6.206,20.706l13.107-7.534a123.122,123.122,0,0,0-6.205-20.706Z" transform="translate(-107.911 -11.022)"></path><path class="a" d="M572.8,123.628l-1.086-5.833-11.1-9.446-13.107,7.534L563.1,129.169A21.532,21.532,0,0,1,572.8,123.628Z" transform="translate(-147.338 -34.051)"></path><path class="a" d="M617.575,187.134a40.6,40.6,0,0,1-6.205,13.545l13.107-7.518a40.7,40.7,0,0,0,6.205-13.561Z" transform="translate(-107.911 10.364)"></path><path class="a" d="M619.874,172.576a52.348,52.348,0,0,0,.567-7.534,23.259,23.259,0,0,0-.081-2.382l-13.61,1.717a64.488,64.488,0,0,1,.583,8.2,50.056,50.056,0,0,1-.583,7.534Z" transform="translate(-110.776 -0.176)"></path><path class="c" d="M306.58,113.864l13.674,17.531,13.124-7.534-13.691-17.53Z" transform="translate(189.394 66.084)"></path><path class="a" d="M605.471,184.41a21.531,21.531,0,0,1-9.721,5.541l3.743,20.042,13.107-7.534-2.657-14.209Z" transform="translate(-117.598 13.359)"></path><path class="c" d="M556.869,138.18l-13.189,7.809,13.691-1.734C557.16,142.166,556.966,140.173,556.869,138.18Z" transform="translate(-149.692 -15.408)"></path><path class="a" d="M578.441,181.7,570,192.555l13.2-7.518C581.633,184,580.013,182.9,578.441,181.7Z" transform="translate(-133.427 11.666)"></path><g transform="translate(394.469 69.355)"><path class="d" d="M562.835,118.414v-.194c-.616.227-1.215.518-1.815.81A16.975,16.975,0,0,1,562.835,118.414Z" transform="translate(-533.606 -97.285)"></path><path class="d" d="M555.441,142,544.1,143.426a4.4,4.4,0,0,0,.146.664l11.341-1.426A1.682,1.682,0,0,1,555.441,142Z" transform="translate(-544.1 -82.537)"></path><path class="d" d="M602.956,133.826l-3.727,15.732a110.339,110.339,0,0,1,9.721,16.72l15.586,4.715a124.93,124.93,0,0,1,6.043,20.058l1.62-.259a121.645,121.645,0,0,0-6.189-20.706l-15.586-4.715a109.75,109.75,0,0,0-9.721-16.737L604.43,132.9a125.4,125.4,0,0,0-14.922-15.732l-.518,1.734A124.57,124.57,0,0,1,602.956,133.826Z" transform="translate(-516.26 -97.936)"></path><path class="d" d="M593.226,206.574c-18.7-10.807-33.846-36.94-33.846-58.327,0-9.478,2.965-16.429,7.89-20.317-5.687,3.662-9.17,10.953-9.17,21.224,0,21.451,15.149,47.585,33.83,58.327,9.446,5.444,17.968,5.93,24.108,2.333-.454.13-.924.227-1.393.324C608.812,212.293,601.359,211.256,593.226,206.574Z" transform="translate(-535.417 -91.263)"></path><path class="d" d="M597.32,188.923a21.338,21.338,0,0,0,6.157-3.451l-.567-.5a21.5,21.5,0,0,1-5.59,3.953Z" transform="translate(-511.093 -55.887)"></path><path class="d" d="M562.546,126.667c-.567,0,0-.454.567-.907l-15-12.8c-.421.583-.81,1.231-.113,1.312Z" transform="translate(-541.921 -100.547)"></path><path class="d" d="M595.579,188.688l3.581,19.183c-.421,0,.405,0,1.183-.113l-3.694-19.847C595.9,188.2,595.142,188.477,595.579,188.688Z" transform="translate(-512.253 -54.064)"></path><path class="d" d="M608.239,171.624a63.083,63.083,0,0,0-.518-7.534l-1.361.113a64.669,64.669,0,0,1,.583,8.2,50.105,50.105,0,0,1-.583,7.534l13.691,17.53a42,42,0,0,1-5.006,11.7l.1,1.086a40.361,40.361,0,0,0,6.189-13.561l-13.675-17.53A52.288,52.288,0,0,0,608.239,171.624Z" transform="translate(-505.487 -68.837)"></path><path class="d" d="M574.927,107.537l8.392,20.544a52.536,52.536,0,0,1,6.853,3.24,67.7,67.7,0,0,1,6.853,4.618l.259-1.3a60.816,60.816,0,0,0-5.881-3.921,51.848,51.848,0,0,0-6.87-3.24l-8.376-20.544a42,42,0,0,0-14.938-1.507l.162.875a48.381,48.381,0,0,1,13.545,1.231Z" transform="translate(-533.482 -105.299)"></path><path class="d" d="M576.905,182.26l-7.016,9.073c.308.275.583.551.891.81l7.1-9.186Z" transform="translate(-528.105 -57.568)"></path></g><path class="e" d="M589.9,101.72c.1-2.171,1.62-3.111,3.321-2.106a6.756,6.756,0,0,1,2.949,5.735c-.1,2.171-1.62,3.111-3.24,2.106a6.772,6.772,0,0,1-3.03-5.735Z" transform="translate(-121.226 -39.719)"></path><path class="e" d="M583.91,261.441c0-1.442,1.069-2.074,2.22-1.41a4.52,4.52,0,0,1,1.96,3.807c0,1.442-1.053,2.074-2.22,1.41A4.52,4.52,0,0,1,583.91,261.441Z" transform="translate(-124.941 60.226)"></path><path class="e" d="M623.295,199.287a.827.827,0,0,1-.632-.308.81.81,0,0,1,0-.907l3.888-6.659a.81.81,0,1,1,1.393.81l-2.835,4.861,5.735-1.75a.778.778,0,0,1,1,.535.794.794,0,0,1-.535,1l-7.712,2.382Z" transform="translate(-100.993 17.41)"></path><path class="f" d="M585.274,214.653a18.616,18.616,0,0,1,7.226,8.717,17.83,17.83,0,0,0,2.382-.81,6.48,6.48,0,0,1,5.573.859,18.875,18.875,0,0,1,8.555,14.776c0,9.932-16.98,13.367-16.98,13.367s-16.2-21.6-16.2-31.529c0-2.706-1.15-3.532.389-4.423.13-.081,3.241-1.717,3.354-1.766a6.3,6.3,0,0,1,5.7.81Z" transform="translate(-130.21 31.462)"></path><path class="e" d="M583.042,215.607a18.924,18.924,0,0,1,7.6,9.721c1.426-2.317,4.277-2.8,7.582-.907a18.891,18.891,0,0,1,8.571,14.776c0,9.932-16.2,12.864-16.2,12.864s-16.2-21.581-16.2-31.513C574.471,215.073,578.311,212.886,583.042,215.607Z" transform="translate(-130.845 32.049)"></path><g transform="translate(446.526 246.418)"><path class="g" d="M581.431,215.844a19.443,19.443,0,0,1,7.971,9.721c.292-.47-.113-.292.292-.616a18.649,18.649,0,0,0-7.372-9.122c-2.592-1.507-4.553-1.847-6.092-.907a6.626,6.626,0,0,1,5.2.924Z" transform="translate(-576.23 -214.397)"></path><path class="g" d="M591.491,221.027c-2.576-1.491-4.585-1.523-5.881-.729a6.659,6.659,0,0,1,5.185.972,18.892,18.892,0,0,1,8.571,14.776c0,4.618-3.484,7.712-7.226,9.721,4.18-1.96,7.923-4.861,7.923-9.964a18.892,18.892,0,0,0-8.571-14.776Z" transform="translate(-570.413 -211.058)"></path></g><path class="e" d="M644.69,253.51l-1.085-1.2c8.717-7.923,13.334-20.82,13.334-37.264,0-41.056-29.163-91.265-64.889-111.923l.81-1.393c36.227,20.852,65.7,71.726,65.7,113.251C658.559,231.961,653.763,245.279,644.69,253.51Z" transform="translate(-119.893 -38.157)"></path><path class="b" d="M640.714,179.58h0a.81.81,0,0,1-.794-.81v-1.62a.81.81,0,1,1,1.62,0v1.62a.81.81,0,0,1-.826.81Z" transform="translate(-90.204 8.328)"></path><path class="b" d="M616.261,233.3a.794.794,0,0,1-.81-.794.81.81,0,0,1,.794-.826,27.5,27.5,0,0,0,3.24-.13.813.813,0,0,1,.13,1.62c-1.086.081-2.187.13-3.24.13Zm-4.861-.178h0c-1.069-.081-2.155-.211-3.24-.356a.818.818,0,1,1,.227-1.62c1.069.146,2.106.259,3.24.356a.808.808,0,1,1-.194,1.6Zm12.816-.567a.794.794,0,0,1-.794-.664.81.81,0,0,1,.648-.94c1.037-.194,2.074-.421,3.078-.681a.814.814,0,0,1,.422,1.572c-1.053.275-2.123.5-3.241.713Zm7.728-2.187a.816.816,0,0,1-.308-1.572c.972-.373,1.944-.81,2.884-1.264a.812.812,0,1,1,.713,1.458c-.972.47-1.976.924-3,1.312a.631.631,0,0,1-.259.049Zm7.177-3.71a.81.81,0,0,1-.454-1.491c.875-.583,1.734-1.2,2.56-1.847a.814.814,0,0,1,1,1.28c-.859.664-1.75,1.312-2.673,1.928a.858.858,0,0,1-.437.13Zm6.205-5.087a.875.875,0,0,1-.567-.227.81.81,0,0,1,0-1.15c.745-.745,1.458-1.523,2.139-2.317a.81.81,0,1,1,1.231,1.053c-.713.826-1.458,1.62-2.22,2.414a.875.875,0,0,1-.616.227Zm5.12-6.189a.744.744,0,0,1-.454-.13.826.826,0,0,1-.227-1.134c.6-.859,1.167-1.766,1.7-2.657a.81.81,0,1,1,1.393.81q-.826,1.41-1.75,2.771a.794.794,0,0,1-.648.34Zm3.969-6.967a.875.875,0,0,1-.34,0,.81.81,0,0,1-.389-1.086c.437-.94.859-1.9,1.264-2.9a.814.814,0,1,1,1.507.616c-.421,1.021-.842,2.009-1.312,2.981a.794.794,0,0,1-.761.389Zm2.916-7.485a.647.647,0,0,1-.243,0,.794.794,0,0,1-.535-1c.324-1,.616-2.025.891-3.062a.837.837,0,1,1,1.62.421c-.275,1.053-.583,2.106-.891,3.127a.826.826,0,0,1-.875.486Zm1.961-7.793h-.146a.81.81,0,0,1-.648-.956c.194-1.021.389-2.074.551-3.127a.794.794,0,0,1,.924-.68.81.81,0,0,1,.68.923c-.178,1.086-.356,2.155-.567,3.24a.794.794,0,0,1-.827.6Zm1.15-7.955h0a.826.826,0,0,1-.729-.891c.1-1.053.178-2.106.259-3.24a.762.762,0,0,1,.859-.761.794.794,0,0,1,.745.859c0,1.086-.146,2.171-.243,3.24a.843.843,0,0,1-.924.794Z" transform="translate(-110.339 10.801)"></path><path class="b" d="M605.92,212.863h-.178l-1.62-.373a.826.826,0,0,1-.583-.988.81.81,0,0,1,.972-.583l1.62.356a.815.815,0,1,1-.178,1.62Z" transform="translate(-112.782 29.823)"></path><path class="b" d="M541.333,134.238a.826.826,0,0,1-.794-.664c-.1-.535-.194-1.069-.275-1.62a.812.812,0,1,1,1.6-.259,10.3,10.3,0,0,0,.275,1.62.81.81,0,0,1-.664.956Z" transform="translate(-151.798 -19.874)"></path><path class="b" d="M691.4,180.71a.826.826,0,0,1-.745-.5q-.6-1.507-1.264-3.014a.826.826,0,0,1,.437-1.069.794.794,0,0,1,1.053.421c.438,1.021.859,2.041,1.28,3.046a.826.826,0,0,1-.454,1.069A1.021,1.021,0,0,1,691.4,180.71Zm-3.24-7.534a.826.826,0,0,1-.745-.486c-.453-.988-.907-1.977-1.377-2.965a.794.794,0,0,1,.373-1.069.81.81,0,0,1,1.086.373c.47,1,.94,1.993,1.393,3a.794.794,0,0,1-.405,1.069.745.745,0,0,1-.324.081Zm-3.581-7.4a.81.81,0,0,1-.713-.437l-1.507-2.9a.81.81,0,0,1,.34-1.1.794.794,0,0,1,1.086.34c.518.972,1.021,1.944,1.523,2.933a.81.81,0,0,1-.356,1.086.745.745,0,0,1-.373.081Zm-3.856-7.242a.81.81,0,0,1-.713-.4c-.535-.956-1.069-1.9-1.62-2.835a.81.81,0,1,1,1.393-.826c.551.956,1.1,1.912,1.62,2.868a.81.81,0,0,1-.308,1.1.859.859,0,0,1-.373.1Zm-139.693-.7a.826.826,0,0,1-.81-.7c-.13-1.1-.275-2.187-.389-3.24a.815.815,0,1,1,1.62-.178c.113,1.069.243,2.155.389,3.24a.826.826,0,0,1-.7.907Zm135.529-6.319a.81.81,0,0,1-.7-.389c-.567-.924-1.15-1.847-1.734-2.771a.81.81,0,1,1,1.361-.859c.6.924,1.183,1.847,1.75,2.787a.793.793,0,0,1-.259,1.118.778.778,0,0,1-.34.065ZM540.2,149.683a.81.81,0,0,1-.794-.762c0-1.1-.146-2.2-.178-3.24a.826.826,0,0,1,.777-.842h0a.826.826,0,0,1,.81.794c0,1.069.1,2.155.162,3.24a.81.81,0,0,1-.745.875Zm131.9-5.055a.81.81,0,0,1-.664-.357l-1.847-2.689a.814.814,0,0,1,1.329-.94l1.863,2.722a.81.81,0,0,1-.227,1.118.762.762,0,0,1-.454.1ZM539.94,141.485h0a.826.826,0,0,1-.81-.81v-3.24a.826.826,0,0,1,.81-.794h0a.81.81,0,0,1,.778.843v3.24a.81.81,0,0,1-.778.713Zm127.444-3.564a.826.826,0,0,1-.648-.324l-1.961-2.609a.81.81,0,1,1,1.28-.988c.664.875,1.329,1.75,1.977,2.641a.81.81,0,0,1-.162,1.134.891.891,0,0,1-.486.1Zm-127.072-4.634h-.081a.794.794,0,0,1-.729-.875c.1-1.118.211-2.22.34-3.24a.81.81,0,0,1,.891-.713.826.826,0,0,1,.713.907c-.129,1.053-.243,2.139-.34,3.24a.794.794,0,0,1-.794.632Zm122.065-1.847a.778.778,0,0,1-.632-.308c-.681-.842-1.377-1.62-2.074-2.511a.826.826,0,0,1,.113-1.15.81.81,0,0,1,1.134.113c.7.826,1.393,1.62,2.09,2.544a.81.81,0,0,1-.13,1.134.827.827,0,0,1-.5.13Zm-5.282-6.254a.778.778,0,0,1-.6-.275l-2.187-2.43a.826.826,0,0,1,0-1.15.81.81,0,0,1,1.15,0c.745.794,1.474,1.62,2.2,2.43a.826.826,0,0,1-.616,1.361Zm-115.714,0h-.146a.81.81,0,0,1-.648-.94c.194-1.1.421-2.187.664-3.24a.831.831,0,1,1,1.62.373c-.227,1.037-.454,2.09-.648,3.24a.794.794,0,0,1-.842.5Zm110.173-6.011a.826.826,0,0,1-.583-.243c-.762-.778-1.523-1.62-2.3-2.317a.81.81,0,0,1,0-1.15.826.826,0,0,1,1.15,0c.778.778,1.62,1.62,2.317,2.349a.778.778,0,0,1,0,1.134.729.729,0,0,1-.6.162Zm-108.245-1.96h-.227a.81.81,0,0,1-.551-1.021c.34-1.069.681-2.122,1.053-3.143a.81.81,0,1,1,1.523.551c-.357,1-.7,2.025-1.021,3.078a.81.81,0,0,1-.794.47Zm102.38-3.775a.811.811,0,0,1-.551-.211c-.794-.745-1.62-1.491-2.414-2.2a.81.81,0,0,1,0-1.15.826.826,0,0,1,1.15,0l2.43,2.22a.826.826,0,0,1,0,1.15.81.81,0,0,1-.632.13Zm-99.48-3.888a.875.875,0,0,1-.34,0,.81.81,0,0,1-.405-1.069c.47-1.021.972-2.009,1.491-2.981a.808.808,0,0,1,1.426.761c-.5.94-.988,1.912-1.442,2.9a.794.794,0,0,1-.745.324Zm93.323-1.62a.907.907,0,0,1-.519-.178c-.826-.713-1.62-1.393-2.527-2.074a.807.807,0,1,1,1-1.264c.859.68,1.717,1.377,2.56,2.09a.817.817,0,0,1-.535,1.442Zm-6.481-5.071a.746.746,0,0,1-.47-.162c-.891-.648-1.766-1.28-2.657-1.9a.826.826,0,0,1-.195-1.134.81.81,0,0,1,1.134-.194c.891.632,1.782,1.264,2.673,1.928a.81.81,0,0,1-.486,1.458Zm-82.792-.518a.81.81,0,0,1-.664-1.264c.616-.94,1.28-1.847,1.961-2.706a.807.807,0,1,1,1.264,1,25.66,25.66,0,0,0-1.879,2.609A.842.842,0,0,1,550.261,102.341Zm76.149-4.115a.86.86,0,0,1-.438-.13c-.923-.6-1.847-1.167-2.77-1.734a.807.807,0,1,1,.842-1.377l2.8,1.734a.826.826,0,0,1,.243,1.134A.859.859,0,0,1,626.41,98.226ZM555.429,95.99a.843.843,0,0,1-.567-.227.81.81,0,0,1,0-1.15,31.846,31.846,0,0,1,2.43-2.284.81.81,0,1,1,1.053,1.231c-.794.7-1.62,1.426-2.333,2.187a.826.826,0,0,1-.664.243Zm63.933-1.96a.811.811,0,0,1-.389-.1c-.972-.535-1.928-1.037-2.884-1.523a.794.794,0,0,1-.356-1.085.81.81,0,0,1,1.085-.356l2.933,1.62a.826.826,0,0,1,.324,1.1.81.81,0,0,1-.794.34Zm-57.614-3.24a.826.826,0,0,1-.68-.373.81.81,0,0,1,.227-1.118c.924-.616,1.9-1.2,2.868-1.717a.8.8,0,1,1,.778,1.41c-.94.518-1.863,1.069-2.754,1.62a.859.859,0,0,1-.583.178Zm50.226-.389a.73.73,0,0,1-.324,0c-1-.454-2.009-.875-3-1.264a.811.811,0,0,1,.6-1.507c1,.405,2.025.826,3.046,1.28a.826.826,0,0,1-.324,1.62Zm-7.647-2.949a.729.729,0,0,1-.259,0c-1.037-.34-2.074-.664-3.094-.956a.81.81,0,0,1-.567-.988.826.826,0,0,1,1-.567c1.053.292,2.106.616,3.24.972a.794.794,0,0,1-.373,1.539Zm-35.352-.437a.826.826,0,0,1-.762-.518.81.81,0,0,1,.47-1.037c1.021-.405,2.074-.778,3.16-1.1a.826.826,0,0,1,1,.551.81.81,0,0,1-.551,1c-1.021.308-2.042.664-3.03,1.053a.922.922,0,0,1-.34.049Zm27.446-1.7h-.178c-1.069-.211-2.123-.405-3.24-.567a.778.778,0,0,1-.68-.907.794.794,0,0,1,.907-.68c1.086.162,2.188.356,3.241.567a.794.794,0,0,1,.632.956.778.778,0,0,1-.729.632Zm-19.572-.5a.813.813,0,1,1-.146-1.62c1.086-.194,2.2-.34,3.24-.454a.815.815,0,1,1,.178,1.62c-1.069.113-2.155.259-3.24.437Zm11.438-.583h0c-1.086,0-2.171-.1-3.24-.1a.81.81,0,0,1,0-1.62,32.816,32.816,0,0,1,3.321.113.794.794,0,0,1,.761.859.826.826,0,0,1-.891.745Z" transform="translate(-152.713 -50.077)"></path><path class="b" d="M635.116,148.2a.777.777,0,0,1-.761-.535l-.567-1.507a.843.843,0,0,1,.486-1.053.826.826,0,0,1,1.037.486l.567,1.523a.81.81,0,0,1-.486,1.037Z" transform="translate(-94.035 -11.128)"></path><path class="e" d="M617,222.743a.81.81,0,0,1-.745-.5c-.211-.5-.4-1-.616-1.491a.81.81,0,0,1,.438-1.069.826.826,0,0,1,1.053.437l.632,1.507a.827.827,0,0,1-.454,1.053A.7.7,0,0,1,617,222.743Z" transform="translate(-105.306 35.254)"></path><path class="e" d="M610.075,295.868h0a21.51,21.51,0,0,1-3.24-.162.794.794,0,0,1-.729-.875.843.843,0,0,1,.875-.745,29.346,29.346,0,0,0,3.127.162.81.81,0,1,1-.032,1.62Zm4.861-.34a.812.812,0,1,1-.113-1.62,30.814,30.814,0,0,0,3.046-.632.81.81,0,0,1,.988.567.794.794,0,0,1-.567.988,27.129,27.129,0,0,1-3.24.68Zm-12.751-.567h-.162c-1.037-.227-2.106-.486-3.241-.794a.826.826,0,0,1-.551-1,.81.81,0,0,1,1-.551c1.037.292,2.058.551,3.062.762a.815.815,0,0,1-.178,1.62Zm20.414-1.734a.829.829,0,1,1-.356-1.62,24.631,24.631,0,0,0,2.722-1.491.81.81,0,0,1,.875,1.361,26.744,26.744,0,0,1-2.9,1.62.842.842,0,0,1-.405.129Zm-28.159-.616h-.292c-.988-.389-1.993-.81-3-1.264a.842.842,0,0,1-.4-1.086.81.81,0,0,1,1.085-.389c.972.437,1.944.859,2.9,1.231a.81.81,0,0,1,.47,1.053.826.826,0,0,1-.761.454Zm34.688-3.856a.794.794,0,0,1-.6-.259.81.81,0,0,1,0-1.15,25.387,25.387,0,0,0,2.139-2.236.826.826,0,0,1,1.15-.1.794.794,0,0,1,0,1.134,26.638,26.638,0,0,1-2.285,2.4.744.744,0,0,1-.389.211Zm5.022-6.205a.844.844,0,0,1-.421-.13.794.794,0,0,1-.259-1.1c.535-.875,1.037-1.8,1.507-2.754a.794.794,0,0,1,1.069-.373.81.81,0,0,1,.373,1.086,25.217,25.217,0,0,1-1.62,2.884.827.827,0,0,1-.632.389Zm3.386-7.258a.822.822,0,0,1-.275,0,.81.81,0,0,1-.5-1.037q.518-1.458.923-3.014a.794.794,0,0,1,.988-.567.81.81,0,0,1,.567.988c-.276,1.069-.6,2.122-.94,3.127a.81.81,0,0,1-.745.5Zm1.928-7.777h-.146a.81.81,0,0,1-.664-.924c.178-1.021.308-2.074.421-3.143a.815.815,0,0,1,1.62.178c-.113,1.1-.259,2.171-.437,3.24a.81.81,0,0,1-.778.648Zm.745-7.988h0a.81.81,0,0,1-.794-.826v-3.176a.81.81,0,0,1,.794-.826.859.859,0,0,1,.826.794v3.257a.81.81,0,0,1-.81.778Zm-.178-8.02a.81.81,0,0,1-.81-.745c0-1.053-.178-2.106-.292-3.24a.807.807,0,0,1,1.6-.178c.113,1.086.227,2.155.308,3.24a.81.81,0,0,1-.745.875Zm-.972-7.971a.794.794,0,0,1-.794-.664c-.178-1.037-.372-2.09-.583-3.127a.826.826,0,0,1,1.62-.324c.21,1.069.4,2.122.583,3.24a.826.826,0,0,1-.664.94Zm-1.62-7.842a.81.81,0,0,1-.778-.616c-.259-1.021-.535-2.058-.826-3.078a.826.826,0,0,1,.567-1,.81.81,0,0,1,.989.567c.308,1.037.583,2.074.842,3.127a.81.81,0,0,1-.583.972Zm-2.236-7.712a.794.794,0,0,1-.761-.551c-.34-1-.68-2.009-1.037-3.014a.81.81,0,0,1,.486-1.037.794.794,0,0,1,1.037.486c.373,1.021.713,2.042,1.053,3.046a.794.794,0,0,1-.518,1.021.664.664,0,0,1-.276.049Z" transform="translate(-120.743 37.606)"></path><path class="e" d="M589.35,264.927a.859.859,0,0,1-.389-.1l-1.426-.81a.794.794,0,0,1-.292-1.1.81.81,0,0,1,1.1-.308l1.393.794a.826.826,0,0,1,.324,1.1A.794.794,0,0,1,589.35,264.927Z" transform="translate(-122.944 61.927)"></path><path class="e" d="M615.562,224.276h0a.81.81,0,0,1-.762-.859l.259-4.326a.875.875,0,0,1,.47-.68.794.794,0,0,1,.826.081L620,221.2a.81.81,0,0,1,.162,1.134.778.778,0,0,1-1.118.162l-2.447-1.815-.178,2.835a.81.81,0,0,1-.859.761Z" transform="translate(-105.784 34.45)"></path><path class="d" d="M446.576,137.142c0-5.314-7.534-9.64-16.737-9.721s-16.656,4.277-16.639,9.608c0,4.861,6.319,8.895,14.436,9.543v2.852c-1.539.227-2.673,1.037-2.673,1.993v9.2c0,1.167,1.62,2.09,3.629,2.106h2.738c1.993,0,3.613-.924,3.6-2.074v-9.2c0-.972-1.15-1.782-2.69-2.025v-2.69C440.419,146.02,446.592,142.018,446.576,137.142Z" transform="translate(-230.333 -22.095)"></path><path class="c" d="M677.073,552.949,387.431,385.439c-11.212-6.488-20.3-23.877-20.3-38.848V82.828c0-14.972,9.089-21.849,20.3-15.361L677.073,234.961c11.212,6.488,20.3,23.861,20.3,38.832V537.572C697.439,552.544,688.284,559.421,677.073,552.949Z" transform="translate(-259.006 -60.922)"></path><path class="h" d="M682.147,232.382,392.521,64.938c-4.439-2.563-8.538-3.049-11.892-1.752-.421.162-8.36,4.266-8.749,4.493h0c3.451-1.622,7.842-1.379,12.621,1.395l289.625,167.46c11.212,6.488,20.3,23.86,20.3,38.832V539.143c0,9.343-3.548,15.539-8.927,17.291a3.337,3.337,0,0,0,1.782-.6c.259-.146,8.668-4.7,8.911-4.866,3.856-2.709,6.27-8.256,6.27-15.961V271.214C702.464,256.242,693.358,238.854,682.147,232.382Z" transform="translate(-256.087 -62.492)"></path><path class="i" d="M679.911,232.88,390.237,65.563c-4.423-2.56-8.538-3.03-11.876-1.75-.421.178-6.092,3.24-6.481,3.4h0c3.451-1.62,7.842-1.377,12.621,1.393L674.127,235.942Z" transform="translate(-256.05 -62.098)"></path><path class="d" d="M674.529,234.665,384.936,67.155c-4.585-2.66-8.814-3.049-12.216-1.622a14.973,14.973,0,0,1,9.721,2.3L672.148,235.395c11.212,6.488,20.3,23.86,20.3,38.832V538.006c0,8.84-3.24,14.826-8.1,16.934,6.27-.989,10.515-7.429,10.515-17.664V273.5C694.879,258.525,685.871,241.137,674.529,234.665Z" transform="translate(-255.556 -61.112)"></path><path class="j" d="M374.17,90.45V330.809c0,11.745,5.573,23.215,14.582,28.958L675.25,525.5l.486.276a3.872,3.872,0,0,0,5.8-3.374V268.286Z" transform="translate(-254.64 -45.153)"></path><path class="k" d="M681.184,523.6l-.47-.26L394.167,357.609c-9.024-5.743-14.582-17.213-14.582-28.958V93.565l-5.4-3.115V330.809c0,11.745,5.574,23.215,14.582,28.958L675.238,525.5l.486.276a3.87,3.87,0,0,0,5.557-2.093Z" transform="translate(-254.628 -45.153)"></path><path class="d" d="M554,183.8a12.249,12.249,0,0,0,5.59,9.624c3.078,1.782,5.573.356,5.573-3.24a12.314,12.314,0,0,0-5.573-9.64C556.447,178.831,554,180.256,554,183.8Z" transform="translate(-143.313 10.499)"></path><path class="d" d="M545.07,178.654a12.346,12.346,0,0,0,5.59,9.64c3.078,1.782,5.589.356,5.589-3.24a12.345,12.345,0,0,0-5.589-9.721C547.581,173.616,545.07,175.106,545.07,178.654Z" transform="translate(-148.831 7.263)"></path><path class="d" d="M536.18,173.456a12.314,12.314,0,0,0,5.574,9.64c3.094,1.782,5.59.356,5.59-3.24a12.249,12.249,0,0,0-5.59-9.624C538.675,168.5,536.18,169.924,536.18,173.456Z" transform="translate(-154.325 4.075)"></path><path class="a" d="M500.342,171.845,479.28,159.71c-2.122-1.215-3.84-.243-3.84,2.2a8.474,8.474,0,0,0,3.84,6.627l21.063,12.135c2.122,1.215,3.856.243,3.856-2.187A8.506,8.506,0,0,0,500.342,171.845Zm34.607,19.977-21.062-12.135c-2.122-1.215-3.856-.243-3.856,2.2a8.489,8.489,0,0,0,3.856,6.627l21.062,12.135c2.123,1.215,3.84.243,3.84-2.2A8.473,8.473,0,0,0,534.949,191.822ZM569.54,211.8l-21.062-12.135c-2.122-1.215-3.84-.243-3.84,2.2a8.474,8.474,0,0,0,3.84,6.627l21.062,12.135c2.123,1.215,3.856.243,3.856-2.2a8.49,8.49,0,0,0-3.856-6.627Zm34.607,19.993-21.062-12.135c-2.122-1.215-3.84-.243-3.84,2.187a8.49,8.49,0,0,0,3.84,6.643l21.063,12.135c2.122,1.215,3.84.243,3.84-2.2A8.473,8.473,0,0,0,604.148,231.792Z" transform="translate(-191.973 -2.308)"></path><path class="l" d="M139.17,117.563v90.455l9.9-5.8v-90.7Z" transform="translate(86.003 69.352)"></path><path class="h" d="M214.723,158.663v90.455L17.4,135.948V45.25Z" transform="translate(10.791 27.996)"></path><path class="a" d="M17.4,47.532,214.723,160.946l9.867-6.043L27.186,41.57Z" transform="translate(10.791 25.713)"></path><path class="g" d="M17.4,45.25,214.723,158.663l9.867-6.043-9.883,4.666Z" transform="translate(10.791 27.996)"></path><path class="d" d="M145.2,165.851v-3.84l-62.28-35.4v3.84Z" transform="translate(51.222 78.709)"></path><path class="d" d="M66.27,82.52v3.84l104.681,59.9V142.4Z" transform="translate(40.921 51.286)"></path><path class="d" d="M103.129,123.509,66.27,102.22v3.84l36.859,21.289Z" transform="translate(40.945 63.527)"></path><path class="d" d="M104.42,134.1v3.84l15.214,8.231v-3.84Z" transform="translate(64.526 83.354)"></path><path class="d" d="M125.715,126.686,66.27,92.37v3.84l59.445,34.316Z" transform="translate(40.938 57.404)"></path><path class="d" d="M88.045,109.873,66.27,97.3v3.84l21.775,12.573Z" transform="translate(40.949 60.463)"></path><path class="d" d="M76.29,121.7l41.785,24.125v-3.84L76.29,117.86Z" transform="translate(47.134 73.259)"></path><path class="d" d="M82.04,106.4v3.84l58.667,33.327v-3.84Z" transform="translate(50.68 66.133)"></path><path class="d" d="M91.35,116.7v3.856l29.342,16.931v-3.84Z" transform="translate(56.444 72.534)"></path><path class="d" d="M78.729,119.264,66.27,112.07v3.84L78.729,123.1Z" transform="translate(40.952 69.649)"></path><path class="d" d="M105.29,118.74l41.461,23.4V138.3L105.29,114.9Z" transform="translate(65.051 71.417)"></path><path class="d" d="M120.58,132.166l16.688,9.624v-3.84l-16.688-9.64Z" transform="translate(74.511 79.753)"></path><path class="d" d="M66.27,91.29l104.681,59.882v-3.84L66.27,87.45Z" transform="translate(40.921 54.354)"></path><path class="d" d="M111.79,132.34l30.929,17.32v-3.84L111.79,128.5Z" transform="translate(69.073 79.875)"></path><path class="d" d="M89.455,130.383,66.27,117v3.84l23.185,13.383Z" transform="translate(40.949 72.719)"></path><path class="d" d="M123.69,153.65l11.649,6.724v-3.84L123.69,149.81Z" transform="translate(76.436 93.126)"></path><path class="d" d="M116.15,144.37l23.865,13.788v-3.84L116.15,140.53Z" transform="translate(71.77 87.357)"></path><path class="d" d="M66.27,110.99l104.681,59.882v-3.84L66.27,107.15Z" transform="translate(40.921 66.613)"></path><path class="l" d="M370.28,143.722l-34.413-19.912c-6.011-3.467-10.888.211-10.888,8.247v39.857c0,8.1,4.861,17.352,10.888,20.819l34.413,19.912c6.027,3.467,10.9-.211,10.9-8.231V164.541C381.184,156.521,376.308,147.189,370.28,143.722Z" transform="translate(-284.783 -25.136)"></path><path class="m" d="M374.542,209.337l-34.413-19.912c-6.027-3.467-10.9-12.783-10.9-20.819V128.782a12.962,12.962,0,0,1,1.345-6.222c-3.338.551-5.59,4-5.59,9.462v39.857c0,8.1,4.861,17.352,10.888,20.819L370.28,212.61c4.115,2.382,7.7,1.393,9.559-2.025a8.1,8.1,0,0,1-5.3-1.248Z" transform="translate(-284.783 -25.102)"></path><path class="n" d="M353.78,150.588l-34.413-19.9c-6.011-3.483-10.888.211-10.888,8.231v39.84c0,8.02,4.861,17.336,10.888,20.819l34.413,19.912c6.027,3.483,10.9-.211,10.9-8.231V171.408C364.684,163.388,359.808,154.072,353.78,150.588Z" transform="translate(-295.016 -20.856)"></path><path class="o" d="M357.97,148.547l-34.413-19.9a7.145,7.145,0,0,0-6.8-.745h0l-5.962,3.5h0a6.9,6.9,0,0,1,7.177.535l34.413,19.9c6.027,3.483,10.9,12.8,10.9,20.82V212.5c0,3.9-1.167,6.756-3.046,8.3l3.24-2.187a9.8,9.8,0,0,0,5.33-9.4v-39.84C368.858,161.347,363.981,152.031,357.97,148.547Z" transform="translate(-293.584 -22.108)"></path><path class="g" d="M352.926,150.271l-34.413-19.912c-3-1.717-5.7-1.62-7.664-.211a7.355,7.355,0,0,1,6.335.924L351.6,150.984c6.027,3.467,10.9,12.8,10.9,20.82V211.58c0,4.034-1.248,6.967-3.24,8.457,2.754-1.053,4.553-4.31,4.553-9.17V171.075C363.814,163.071,358.937,153.739,352.926,150.271Z" transform="translate(-293.546 -21.043)"></path><path class="d" d="M314.11,137v45.608l37.264,21.549V158.516Zm34.931,63.025-32.534-18.794V141.1l32.534,18.794Z" transform="translate(-291.525 -16.123)"></path><path class="d" d="M335.7,158.629c0,3-2.122,4.2-4.715,2.69a10.369,10.369,0,0,1-4.715-8.1c0-2.981,2.106-4.2,4.715-2.69a10.434,10.434,0,0,1,4.715,8.1Z" transform="translate(-283.983 -8.128)"></path><path class="d" d="M14.71,100,24.431,87.44,34.3,112.407l7.177-5.833L49.4,128.107l-.162,2.171-34.38-18.389Z" transform="translate(9.123 54.339)"></path><path class="p" d="M611.955,172.971c0,6.189-2.139,10.58-5.606,12.7l-6.043,3.743c-3.629,2.025-1.312-2.56-6.8-5.735-11.05-6.384-20.009-21.84-20.009-34.526,0-6.27-5.8-6.319-2.252-8.409l6.724-3.84c3.613-1.96,8.539-1.62,13.982,1.539C603,144.828,611.955,160.285,611.955,172.971Z" transform="translate(-133.512 -16.943)"></path><path class="d" d="M585.37,140.545c-5.3-3.062-10.11-3.467-13.691-1.62,3.338-.924,7.469-.227,11.957,2.365,11.066,6.384,20.026,21.84,20.026,34.526,0,6.594-2.43,11.147-6.319,13.091,4.861-1.361,8.1-6.238,8.1-13.772C605.38,162.418,596.5,146.928,585.37,140.545Z" transform="translate(-132.526 -15.622)"></path><ellipse class="q" cx="16.299" cy="28.224" rx="16.299" ry="28.224" transform="translate(423.579 132.241) rotate(-30.31)"></ellipse><path class="l" d="M289.69,221.363V331.812l9.9-5.784V215.32Z" transform="translate(178.919 134.036)"></path><path class="h" d="M372.375,266.557V377.005L156.42,253.174V142.45Z" transform="translate(96.266 88.843)"></path><path class="a" d="M156.42,144.726,372.375,268.833l9.867-6.043L166.206,138.78Z" transform="translate(96.266 86.351)"></path><path class="g" d="M156.42,142.45,372.375,266.557l9.867-6.043-9.9,4.666Z" transform="translate(96.266 88.63)"></path><ellipse class="l" cx="27.592" cy="47.779" rx="27.592" ry="47.779" transform="translate(373.712 356.877) rotate(-30.31)"></ellipse><path class="m" d="M577.07,350.927c-18.729-10.807-33.83-36.973-33.83-58.457,0-8,2.106-14.241,5.735-18.34-5.573,3.726-8.976,11-8.976,21.176,0,21.484,15.165,47.65,33.894,58.457,11.73,6.772,22.067,5.9,28.143-.988C595.783,356.906,586.985,356.549,577.07,350.927Z" transform="translate(-152.02 69.328)"></path><path class="l" d="M525.638,245.522l-7.291-4.2v82.111l7.291,4.213Zm10.5-4.115-7.291-4.2V329.4l7.291,4.212Zm10.79,18.551-7.275-4.213v79.827l7.275,4.212ZM496.7,265.742v44.993l7.291,4.2V269.954Zm18.1-12.508-7.291-4.2v67.87l7.291,4.213Zm42.692,29.52-7.275-4.2v63.188l7.275,4.212Zm10.4,26.069L560.6,304.61v43.211l7.291,4.213Zm-74.675-50.89-7.275-4.213V304.2l7.275,4.2Zm-28.888,2.981v30.573l7.291,4.213V265.126Zm18.1-12.006-7.291-4.2v52.948l7.291,4.212Z" transform="translate(-198.801 46.288)"></path><path class="b" d="M525.65,272.535l-7.291-4.213v49.886l7.291,4.213Zm10.5-22.683-7.291-4.213v78.531l7.291,4.212Zm10.79,19.442-7.275-4.212v65.245l7.275,4.212Zm-50.226,2.139v34.024l7.291,4.2V275.63Zm18.1-1.345-7.291-4.2v45.787l7.291,4.212ZM493.2,256.836l-7.275-4.213v46.354l7.275,4.2ZM464.31,277.412v8.846l7.291,4.212v-8.862Zm18.1,0-7.291-4.213v19.215l7.291,4.213Zm75.1,11.844-7.242-4.148v51.425l7.275,4.213Zm10.4,20.706-7.291-4.2V342.56l7.291,4.212Z" transform="translate(-198.813 51.521)"></path><path class="d" d="M217.931,200.32l-7.291-4.212V195.2l7.291,4.2Z" transform="translate(130.171 121.359)"></path><path class="d" d="M211.261,188.31,203.97,184.1v-.907l7.291,4.212Z" transform="translate(126.049 113.888)"></path><path class="d" d="M230.875,225.43l-7.275-4.2v-.924l7.275,4.213Z" transform="translate(138.18 136.979)"></path><path class="d" d="M204.775,202.31,197.5,198.1v-.907l7.275,4.212Z" transform="translate(122.051 122.596)"></path><path class="d" d="M224.471,212.65l-7.291-4.213v-.907l7.291,4.212Z" transform="translate(134.213 129.029)"></path><path class="d" d="M178.111,205.34l-7.291-4.212v-.907l7.291,4.213Z" transform="translate(105.563 124.481)"></path><path class="d" d="M184.781,192.63l-7.291-4.212v-.907l7.291,4.2Z" transform="translate(109.685 116.575)"></path><path class="d" d="M171.435,207.006v.907l-7.275-4.2v-.907Z" transform="translate(101.447 126.092)"></path><path class="d" d="M198.121,200.81l-7.291-4.2v-.923l7.291,4.212Z" transform="translate(117.929 121.663)"></path><path class="d" d="M191.451,204.224l-7.291-4.2v-.907l7.291,4.2Z" transform="translate(113.807 123.797)"></path><path class="p" d="M542.812,300.518c.438-16.2,12.249-22.683,26.717-14.339,7.453,4.31,14.193,11.714,19.053,20.188l5.347-1.345c-6.092-11.033-14.776-20.771-24.4-26.328-18.211-10.515-33.052-2.2-33.279,18.5l4.277,3.888Z" transform="translate(-154.331 69.188)"></path><path class="p" d="M583.688,340.559a23.055,23.055,0,0,1-13.415-3.564c-13.707-7.923-25.032-26.361-26.571-42.514l-6.481-3.24c0,.113-2.187.567-2.171.68,1.831,19.993,18.146,42.676,35.223,52.559,6.205,3.581,10.4,5.46,15.376,4.861.211,0,2.025-.551,2.236-.567Z" transform="translate(-155.067 79.94)"></path><path class="p" d="M571.989,297.575a51.116,51.116,0,0,1,5.185,21.063c0,9.721-3.953,16.072-10.094,18.162l4.132,8.2c7.615-2.625,12.492-10.547,12.492-22.585a63.56,63.56,0,0,0-6.481-26.182Z" transform="translate(-135.236 83.035)"></path><path class="p" d="M571.3,316.934a22.374,22.374,0,0,1-4.682-5.622c-.778-1.3-.761-2.706,0-3.143a6.074,6.074,0,0,0,2.4-2.673c.826.227,1.847-.081,1.847-1.2a4.52,4.52,0,0,0-1.2-3.046A14.906,14.906,0,0,0,562.109,288a6.967,6.967,0,0,0-4.585-1.28,22.553,22.553,0,0,0-2.722.745c-1.539.761-.113,2.414-.227,5.087-.681-.162-1.2.5-1.2,1.62a5.444,5.444,0,0,0,1.847,3.338,27.545,27.545,0,0,0,2.4,5.444c.745,1.312.778,2.738,0,3.143a6.205,6.205,0,0,1-4.682.211,3.419,3.419,0,0,0-1.961-.081,22.613,22.613,0,0,0-2.333.648c-1.053.519.146,1.28.146,3.078v5.071a3.387,3.387,0,0,0,1.62,2.673l21.759,14.436c.372.227,2.511-.535,2.771-.648a1.122,1.122,0,0,0,.567-1.037v-5.087A12.087,12.087,0,0,0,571.3,316.934Z" transform="translate(-146.906 77.016)"></path><path class="d" d="M541.912,300.764c.437-16.2,12.232-22.683,26.717-14.323,7.453,4.294,14.193,11.714,19.054,20.171l5.33-1.329c-6.076-11.05-14.76-20.771-24.384-26.328-18.227-10.531-33.068-2.2-33.279,18.5Z" transform="translate(-154.887 69.347)"></path><path class="d" d="M581.957,340.819a23.055,23.055,0,0,1-13.415-3.564c-13.723-7.923-25.032-26.361-26.571-42.514l-6.481-3.24c1.75,20.188,15.927,43.372,33.1,53.288,6.481,3.726,12.492,5.087,17.6,4.358Z" transform="translate(-154.792 80.101)"></path><path class="d" d="M571.1,297.825a51.182,51.182,0,0,1,5.185,21.062c0,9.721-3.953,16.072-10.11,18.162l4.148,8.182c7.6-2.608,12.476-10.547,12.476-22.569a63.315,63.315,0,0,0-6.4-26.182Z" transform="translate(-135.798 83.19)"></path><path class="d" d="M570.187,317.208a22.424,22.424,0,0,1-4.7-5.622c-.778-1.3-.745-2.706,0-3.143a5.946,5.946,0,0,0,2.382-2.673c.826.227,1.847-.081,1.847-1.2a4.471,4.471,0,0,0-1.183-3.046,14.938,14.938,0,0,0-7.55-13.253c-5.654-3.24-7.339-.146-7.55,4.536-.68-.146-1.183.518-1.183,1.62a5.443,5.443,0,0,0,1.847,3.337,25.306,25.306,0,0,0,2.4,5.428c.745,1.312.778,2.754,0,3.159a6.173,6.173,0,0,1-4.7.194c-2.366-.713-4.148.729-4.148,3.645v5.087a3.386,3.386,0,0,0,1.62,2.673l23.558,13.593c.859.5,1.62.1,1.62-.875v-5.087a12.087,12.087,0,0,0-4.261-8.376Z" transform="translate(-147.253 77.163)"></path><path class="r" d="M541.392,300.9c.437-16.2,12.249-22.683,26.717-14.323,7.453,4.294,14.193,11.714,19.054,20.171l5.347-1.345c-6.092-11.034-14.776-20.755-24.4-26.328-18.211-10.515-33.052-2.187-33.279,18.519Z" transform="translate(-155.208 69.426)"></path><path class="r" d="M581.437,340.949a23.088,23.088,0,0,1-13.415-3.564c-13.707-7.923-25.032-26.361-26.571-42.514l-6.481-3.24c1.75,20.188,15.926,43.372,33.1,53.288,6.481,3.726,12.492,5.087,17.612,4.358Z" transform="translate(-155.114 80.182)"></path><path class="r" d="M570.569,297.949a51.134,51.134,0,0,1,5.185,21.063c0,9.721-3.953,16.072-10.094,18.162l4.131,8.1c7.615-2.608,12.492-10.547,12.492-22.569a63.561,63.561,0,0,0-6.351-26.085Z" transform="translate(-136.113 83.277)"></path><path class="r" d="M569.614,317.338a23.029,23.029,0,0,1-4.682-5.622c-.778-1.3-.761-2.706,0-3.143a6.074,6.074,0,0,0,2.4-2.673c.826.227,1.847-.081,1.847-1.2a4.488,4.488,0,0,0-1.2-3.046,14.905,14.905,0,0,0-7.55-13.253c-5.654-3.24-7.34-.146-7.534,4.536-.68-.146-1.2.519-1.2,1.62a5.444,5.444,0,0,0,1.847,3.338,27.025,27.025,0,0,0,2.4,5.428c.761,1.312.778,2.754,0,3.159a6.125,6.125,0,0,1-4.682.194c-2.382-.713-4.148.729-4.148,3.645v5.087a3.435,3.435,0,0,0,1.62,2.673l23.541,13.593c.859.5,1.62.1,1.62-.875v-4.958A12.054,12.054,0,0,0,569.614,317.338Z" transform="translate(-147.587 77.244)"></path><path class="o" d="M157.16,203.65v46.257l7.745-4.261V199.13Z" transform="translate(97.121 123.842)"></path><path class="n" d="M222.7,239.845V286.1L51.54,187.286V140.77Z" transform="translate(31.802 87.606)"></path><path class="s" d="M51.54,142.463,222.7,241.538l7.712-4.52L59.187,138.04Z" transform="translate(31.798 85.867)"></path><path class="g" d="M51.54,140.77,222.7,239.845l7.712-4.52-7.55,3.305Z" transform="translate(31.798 87.562)"></path><path class="d" d="M210.765,266.66,56.75,176.772V149.52l154.015,89.888Z" transform="translate(35.024 93.026)"></path><path class="m" d="M360.91,216.73l3.111,1.8,1.442,14.873h0L367,220.246l3.516,2.025,1.539,14.938h0l1.442-13.221,2.787,1.62-2.074,18.308-4.034-2.333-1.474-12.67h0l-1.474,10.969-4.293-2.479Z" transform="translate(-262.636 33.467)"></path><path class="m" d="M372.29,223.35l3.111,1.8,1.442,14.873h0l1.539-13.172,3.516,2.041,1.539,14.922h0l1.442-13.2,2.787,1.62-2.074,18.308-4.034-2.317-1.474-12.67h0l-1.474,10.969-4.294-2.479Z" transform="translate(-255.604 37.586)"></path><path class="m" d="M383.76,229.87l3.111,1.8,1.442,14.873h0l1.539-13.156,3.516,2.025,1.539,14.938h0l1.442-13.221,2.787,1.62-2.025,18.357-4.034-2.317-1.458-12.67h0l-1.474,10.969-4.375-2.511Z" transform="translate(-248.516 41.643)"></path><path class="p" d="M99.5,56.123V88.381l4.861-2.69V53.19Z" transform="translate(61.49 33.026)"></path><path class="q" d="M110.51,61.444V93.7L81.8,77.111V44.61Z" transform="translate(50.543 27.599)"></path><path class="r" d="M81.8,45.7l28.71,16.834,4.828-2.933L86.563,42.85Z" transform="translate(50.541 26.507)"></path><path class="d" d="M81.8,44.61l28.71,16.834,4.828-2.933-5.071,1.377Z" transform="translate(50.541 27.599)"></path><path class="f" d="M115.08,50.177v52.235l7.874-4.342V45.43Z" transform="translate(71.117 28.107)"></path><path class="t" d="M86.42,33.291l46.5,27.268,7.809-4.747L94.132,28.69Z" transform="translate(53.388 17.725)"></path><path class="g" d="M86.42,31.53,132.92,58.8l7.809-4.747-7.6,3.629Z" transform="translate(53.388 19.487)"></path><path class="e" d="M86.42,31.53V53.192l24.611,14.436V98.379l21.889,12.654V58.8Z" transform="translate(53.391 19.487)"></path><path class="o" d="M176.42,127.453v36.065l5.444-3V124.18Z" transform="translate(109.025 77.197)"></path><path class="n" d="M188.726,133.407v36.065l-32.1-18.551V114.58Z" transform="translate(96.777 71.232)"></path><path class="s" d="M156.63,115.8l32.1,18.827,5.411-3.273L161.96,112.62Z" transform="translate(96.774 69.996)"></path><path class="g" d="M156.63,114.58l32.1,18.827,5.411-3.273-5.671,1.539Z" transform="translate(96.774 71.214)"></path><path class="o" d="M202.42,142.453v36.066l5.444-3V139.18Z" transform="translate(125.093 86.53)"></path><path class="n" d="M214.726,148.407v36.066l-32.1-18.551V129.58Z" transform="translate(112.842 80.566)"></path><path class="s" d="M182.63,130.8l32.1,18.827,5.411-3.273L187.96,127.62Z" transform="translate(112.838 79.328)"></path><path class="g" d="M182.63,129.58l32.1,18.827,5.411-3.273-5.671,1.539Z" transform="translate(112.838 80.546)"></path><path class="o" d="M228.25,157.283v36.066l5.444-3V154.01Z" transform="translate(141.055 95.757)"></path><path class="n" d="M240.566,163.237V199.3l-32.1-18.551V144.41Z" transform="translate(128.808 89.795)"></path><path class="s" d="M208.47,145.619l32.1,18.827,5.4-3.273L213.784,142.46Z" transform="translate(128.803 88.561)"></path><path class="g" d="M208.47,144.41l32.1,18.827,5.4-3.273-5.671,1.539Z" transform="translate(128.803 89.772)"></path><path class="o" d="M253.75,171.783v36.065l5.444-3V168.51Z" transform="translate(156.814 104.779)"></path><path class="n" d="M266.066,177.737V213.8l-32.1-18.551V158.91Z" transform="translate(144.564 98.818)"></path><path class="s" d="M233.97,160.119l32.1,18.827,5.4-3.273L239.284,156.96Z" transform="translate(144.558 97.581)"></path><path class="g" d="M233.97,158.91l32.1,18.827,5.4-3.273L265.791,176Z" transform="translate(144.558 98.792)"></path><path class="d" d="M527.995,235.219a13.833,13.833,0,0,1-2.981-3.548c-.486-.826-.47-1.717,0-1.993a3.839,3.839,0,0,0,1.507-1.62c.518.13,1.167,0,1.167-.762a2.884,2.884,0,0,0-.746-1.928,9.477,9.477,0,0,0-4.86-8.393c-3.581-2.058-4.65-.1-4.78,2.884-.421-.1-.745.324-.745,1.053a3.483,3.483,0,0,0,1.167,2.106,17,17,0,0,0,1.507,3.435c.486.826.5,1.75,0,1.993a3.921,3.921,0,0,1-2.965.13c-1.507-.454-2.625.454-2.625,2.3v3.24a2.139,2.139,0,0,0,.988,1.62l14.906,8.6a.6.6,0,0,0,.972-.551v-3.24A7.7,7.7,0,0,0,527.995,235.219Z" transform="translate(-168.259 33.092)"></path><path class="d" d="M537.72,248.109l5.2,3v-9.316l-5.2-3.014Zm8.231,4.763,5.185,2.965V238.761l-5.2-3ZM554.2,232.75v24.87l5.2,3.078V235.747Z" transform="translate(-153.384 43.435)"></path><path class="d" d="M504.95,219.263a7.6,7.6,0,0,0-.1-1.474l2.447-.308a23.185,23.185,0,0,0-1.1-3.726l-2.8-.842a19.973,19.973,0,0,0-1.75-3.014l.68-2.819a22.3,22.3,0,0,0-2.689-2.754l-1.507,1.944a11.679,11.679,0,0,0-1.231-.826,9.513,9.513,0,0,0-1.231-.6l-1.507-3.694a7.5,7.5,0,0,0-2.689-.259l.68,3.6a3.776,3.776,0,0,0-1.75.988l-2.8-2.382a7.47,7.47,0,0,0-1.118,2.43l2.463,3.24a8.764,8.764,0,0,0-.1,1.345,11.479,11.479,0,0,0,.1,1.474l-2.463.308a22.772,22.772,0,0,0,1.118,3.726l2.8.842a18.7,18.7,0,0,0,1.75,3.014l-.68,2.819a22.392,22.392,0,0,0,2.689,2.835l1.507-1.96a11.868,11.868,0,0,0,1.231.842,9.337,9.337,0,0,0,1.231.583l1.507,3.694a7.89,7.89,0,0,0,2.69.275l-.681-3.613a3.856,3.856,0,0,0,1.75-.988l2.8,2.382a7.31,7.31,0,0,0,1.1-2.43l-2.447-3.143A11.926,11.926,0,0,0,504.95,219.263Zm-8.1-.94a7.129,7.129,0,0,1-3.24-5.573c0-2.058,1.458-2.884,3.24-1.847a7.161,7.161,0,0,1,3.241,5.573c.049,2.058-1.426,2.884-3.192,1.847Z" transform="translate(-185.045 23.596)"></path><path class="d" d="M460.486,185.926l10.337,16.2,10.321-4.212h0a3.939,3.939,0,0,0-1.231-1.2L461.7,186.1a1.507,1.507,0,0,0-1.231-.227Z" transform="translate(-201.117 14.239)"></path><path class="d" d="M481.5,197.845l-10.353,5.914-3.014-5.071-7.388,3.03h0l6.87-3.921-6.87-11.876a1.312,1.312,0,0,0-.778,1.377v12.346a4.488,4.488,0,0,0,2.025,3.5l18.26,10.45c1.118.648,2.025.13,2.025-1.15V200.1a4.245,4.245,0,0,0-.778-2.252Zm0,15.8-7.388-11.568.551-.308,6.87,11.86Z" transform="translate(-201.438 14.299)"></path><path class="l" d="M76.64,192.973v46.24l7.307-4.148V188.55Z" transform="translate(47.362 117.258)"></path><path class="h" d="M124.22,218.823v46.24L0,193.37v-46.5Z" transform="translate(0 91.377)"></path><path class="a" d="M0,148.526l124.22,71.953,7.258-4.423L7.21,144.2Z" transform="translate(0 89.679)"></path><path class="g" d="M0,146.87l124.22,71.953,7.258-4.423-7.566,3.046Z" transform="translate(0 91.338)"></path><path class="d" d="M344.467,236.942l-22.683-13.107c-1.393-.81-2.511-.162-2.511,1.442v15.376a5.557,5.557,0,0,0,2.511,4.358l14.193,8.1,7.1,12.249v-8.1l1.426.826c1.393.794,2.528.162,2.528-1.442V241.268a5.574,5.574,0,0,0-2.56-4.326Zm-16.008,2.884c-.745.421-1.944-.275-2.673-1.62s-.745-2.641,0-3.062,1.928.275,2.673,1.62.729,2.641,0,3.062Zm6.141,3.548c-.729.421-1.928-.275-2.673-1.62s-.729-2.657,0-3.078,1.944.275,2.673,1.62S335.346,242.953,334.6,243.374Zm6.157,3.548c-.745.421-1.944-.275-2.673-1.62s-.745-2.657,0-3.078,1.928.275,2.673,1.62.794,2.592,0,3.078Zm-23.412-7.356V227.075l-8.668-4.942c-1.393-.81-2.527-.162-2.527,1.442v15.376a5.574,5.574,0,0,0,2.527,4.358l1.41.81v8.1l7.1-4.05,14.193,8.2c1.393.794,2.528.162,2.528-1.442V254.2l-12.151-7A9.721,9.721,0,0,1,317.345,239.567Z" transform="translate(-296.461 36.623)"></path><path class="d" d="M34.37,173.46v3.84l59.348,34.267v-3.84Z" transform="translate(21.316 107.858)"></path><path class="d" d="M74.956,206.77,34.37,183.31v3.84l40.586,23.46Z" transform="translate(21.316 113.979)"></path><path class="d" d="M34.37,182.23,93.718,216.5v-3.84L34.37,178.39Z" transform="translate(21.316 110.926)"></path><path class="u" d="M465.835,330.955l-38.577-21.727c3.24-2.447,5.282-5.347,5.282-8.474,0-8.636-14.728-15.635-32.89-15.635s-32.89,7-32.89,15.635,14.728,15.619,32.89,15.619a67.212,67.212,0,0,0,10.791-.875l41.542,23.331a11.682,11.682,0,0,0,10.466-.437C465.867,336.772,469.95,333.369,465.835,330.955Z" transform="translate(-259.049 76.044)"></path><path class="k" d="M434.189,312.56a8.83,8.83,0,1,1-11.973-3.6A8.83,8.83,0,0,1,434.189,312.56Z" transform="translate(-227.62 90.278)"></path><path class="m" d="M417.9,276.51l-19.118,10.3L427.3,339.406h0v.081c1.62,3.078,7.275,3.24,12.557.421s8.214-7.647,6.481-10.726h0Z" transform="translate(-239.249 70.697)"></path><path class="l" d="M418.054,277.456c1.62,3.078-1.28,7.874-6.481,10.726s-10.9,2.657-12.556-.421,1.28-7.874,6.562-10.709S416.4,274.394,418.054,277.456Z" transform="translate(-239.375 69.732)"></path><path class="k" d="M407.2,267.9l-11.341,6.124,8.1,15h0c.988,1.831,4.342,1.928,7.469.243s4.861-4.553,3.9-6.367h0Z" transform="translate(-241.041 65.299)"></path><path class="a" d="M402.4,196.191c-14.16-8.1-26.992-9.105-36.389-4.018-.259.146-13.739,7.663-14.161,8.312,9.543-7.21,23.7-7.1,39.484,2.025,28.791,16.623,52.122,56.869,52.122,89.9,0,16.85-6.076,28.564-15.845,33.8a12.07,12.07,0,0,0,2.544-1.118l9.721-5.9c9.057-5.541,14.582-16.963,14.582-33.1C454.522,253.076,431.175,212.814,402.4,196.191Z" transform="translate(-268.257 16.327)"></path><path class="c" d="M396.165,200.1c-28.775-16.623-52.105-3.321-52.105,29.714s23.331,73.281,52.105,89.9,52.122,3.24,52.122-29.714S424.972,216.724,396.165,200.1Zm-.778,111.793c-24.416-14.112-44.231-48.266-44.231-76.295s19.815-39.322,44.231-25.21,44.167,48.185,44.167,76.214-19.734,39.29-44.167,25.226Z" transform="translate(-272.95 18.742)"></path><path class="a" d="M401.825,302.065c-24.416-14.1-44.231-48.249-44.231-76.279,0-11.439,3.24-20.09,8.863-25.356-10.92,2.933-18.017,13.691-18.017,30.46,0,28.029,19.815,62.183,44.231,76.295,14.468,8.344,27.3,7.793,35.369.13C420.717,309.291,411.644,307.735,401.825,302.065Z" transform="translate(-270.233 23.387)"></path><path class="d" d="M391.414,199.327c-13.8-7.971-26.344-9.041-35.644-4.391,8.684-2.43,21.467-1.1,33.149,5.638,28.791,16.623,52.121,56.869,52.121,89.9,0,17.19-8.328,29.52-18.454,34.591,12.718-3.564,20.965-16.2,20.965-35.855C443.536,256.2,420.2,215.934,391.414,199.327Z" transform="translate(-265.832 18.266)"></path></g></g></svg> 