<svg xmlns="http://www.w3.org/2000/svg" viewBox="0 0 470.26 259.91"><title>Asset 2</title><g id="Layer_2" data-name="Layer 2"><g id="Layer_1-2" data-name="Layer 1"><path d="M.09,209.93c-.34-5.24,1.43-9.84,3.34-14.55,3.11-7.69,8.56-13.25,14.79-18.33,4.12-3.37,8-7.11,12.19-10.32a57.35,57.35,0,0,1,8.93-5,71.88,71.88,0,0,1,8.25-3.62c9.39-3.32,18.75-6.78,28.28-9.68,9.22-2.8,18.56-5.29,28-7.26A18,18,0,0,0,116.09,133q5.41-8.47,10.6-17.1c2.81-4.65,5.52-9.38,8.2-14.11,1.91-3.37,3.7-6.8,5.54-10.21,1.49-2.75,2.88-5.57,4.48-8.25,3.3-5.54,6.78-11,10.05-16.53s6.67-11.3,8.6-17.68c2.18-7.19,4.7-14.28,7.14-21.39,1.12-3.25,2.28-6.49,3.61-9.66,1.11-2.66,3-3.75,5-3.3a5.18,5.18,0,0,1,4.12,5.52,8.62,8.62,0,0,1-.88,3.79c-3.2,5.38-5.23,11.19-7.14,17.13-1.68,5.23-4.12,10.22-6.07,15.37-1.72,4.55-3.67,9.09-4.73,13.82-1.17,5.27.53,10.33,3.45,14.79a7.76,7.76,0,0,0,9.18,3.45,42.87,42.87,0,0,0,6-2.25A101.31,101.31,0,0,0,210.37,68a80.23,80.23,0,0,1,6.26-5.4c7.46-5.55,12.84-12.78,17.13-20.9,2.36-4.49,4.73-9,6.94-13.55,1.74-3.61,3.24-7.34,4.86-11a20.44,20.44,0,0,1,1.32-2.7c1.55-2.55,3.23-3.28,5.41-2.47,3.09,1.16,4.36,2.91,3.46,5.9a29.79,29.79,0,0,1-3.48,7.21,202.7,202.7,0,0,0-13.46,25,6.74,6.74,0,0,0-.39,1.06c-1.64,5.72-3.3,11.42-4.88,17.15-1.14,4.13-.54,8.25.63,12.25,1.07,3.7,4.92,4.84,7.7,2.17a29.75,29.75,0,0,0,4.42-6c4.24-6.89,10.59-10.53,18.33-11.85,1.61-.28,3.58.47,5.14,1.24a28.86,28.86,0,0,1,4.51,3.36c2.39,1.83,4.5,1.34,5.74-1.41a31.65,31.65,0,0,0,1-3c1-3,1.87-6,3.09-8.88a9.4,9.4,0,0,1,2.81-3.62c1.93-1.5,4.16-.71,5,1.62.88,2.54,1.19,5.18-.05,7.7-2.54,5.17-5.15,10.31-7.75,15.45-.87,1.74-1.87,3.41-2.65,5.19a10.77,10.77,0,0,0-.91,3.42c-.28,3.22,1.8,5.15,5,4.7a15.2,15.2,0,0,0,10.48-6c1.71-2.31,3.14-4.83,4.78-7.2,1.28-1.85,2.59-3.69,4-5.41,4.51-5.38,10.76-7.09,17.35-7.71,4.25-.41,7.38,1.94,9.89,5.16.31.4.54.85.83,1.26,1.8,2.56,4,2.52,5.25-.38,1.87-4.29,3.48-8.71,5-13.13.73-2.12,1.5-4,3.91-4.61s4.36.29,4.73,2.67a12.93,12.93,0,0,1-.46,5.83c-1,3.14-2.68,6.07-3.89,9.16a122,122,0,0,0-4.38,12.18,33.5,33.5,0,0,0-.86,8.39c0,3.14,2.63,4.49,5.38,2.87,4.69-2.73,7.06-7.06,7.93-12.21,1.63-9.71,7.19-16.81,14.81-22.46,4.79-3.55,9.93-1.61,11.93,4a9.65,9.65,0,0,1-1.43,9.74A40,40,0,0,1,367.73,84a13.62,13.62,0,0,0-5.87,5.11c-.95,1.67-1.37,3.45-.07,5.12s3.12,1.71,5,1.23c2.94-.76,4.91-2.87,6.88-5,2.63-2.85,5.4-5.56,8.07-8.37,3.19-3.36,6.22-6.88,9.53-10.1a81.94,81.94,0,0,1,8.33-7,15.82,15.82,0,0,1,15.16-2.39c1.54.51,3.06,1.12,4.62,1.6,2.51.78,4.23,0,4.94-2.57.66-2.34,1-4.78,1.56-7.15,1.16-5,2.3-10,3.57-15a20.09,20.09,0,0,1,1.56-3.2c.79-1.75,1.53-3.52,2.28-5.29.17-.41.24-.85.43-1.24,2.39-5.16,4.92-10.26,7.14-15.49,1-2.4,1.36-5.07,2.18-7.57A23.11,23.11,0,0,1,445.17,2a3.43,3.43,0,0,1,4-1.84A3.77,3.77,0,0,1,452,3.93a26.38,26.38,0,0,1-1.16,7.74c-2.57,7.14-3.71,14.56-4.71,22a28.08,28.08,0,0,1-2.79,10.07c-1,1.91-1.52,4.12-2.47,6.09C437,58,432.88,66.11,429,74.34a22.84,22.84,0,0,0-1.92,7c-.34,3.07,1.8,5.11,4.78,4.38a40.55,40.55,0,0,0,9.06-3.5c6.48-3.4,12.77-7.16,19.23-10.61a29.93,29.93,0,0,1,7.13-2.73c2.47-.59,3.38.84,2.75,3.31-1.06,4.12-4.3,6-7.65,7.76-4.24,2.29-8.46,4.63-12.71,6.9-6.34,3.39-13,5.56-20.31,5.2a11.73,11.73,0,0,1-4.32-1.17c-3.29-1.54-6.34-1-8.6,1.54-5.07,5.77-11.83,7.82-18.9,9.66-4.54,1.18-10-2-11.55-6.21-.26-.7-.49-1.42-.78-2.11-1.14-2.65-3.22-3.34-5.6-1.66-1.83,1.3-3.49,2.85-5.22,4.3l-3.58,3c-3.53,3-7.36,3.15-11.4,1.19a19.34,19.34,0,0,1-2.11-1.23c-6.19-4.15-11.64-2.77-15.11,3.85-1.25,2.38-.51,4.43,2.07,5.14a12,12,0,0,0,3.89.19c2.87-.17,5.74-.5,8.61-.69,7.44-.48,14.88-.92,22.32-1.36,1.38-.08,2.76,0,4.13-.1,3-.26,6.07-.63,9.11-.92,2.72-.25,5.45-.51,8.19-.67,5.69-.34,11.4-.38,17.06-1,8.79-.91,17.55-2.12,26.3-3.32,4.53-.63,9-1.57,13.53-2.25a14.39,14.39,0,0,1,3.93.07c1.79.21,3.26,1,3.69,2.95a4.33,4.33,0,0,1-2.51,4.62,15.89,15.89,0,0,1-5.83,1.18,40.66,40.66,0,0,0-13.17,1.68,9.41,9.41,0,0,1-2,.31c-9.57.61-19.14,1.12-28.7,1.83-7.81.58-15.59,1.47-23.4,2.07-4.18.32-8.39.24-12.58.46-6.8.36-13.59,1-20.39,1.16a54.33,54.33,0,0,1-9.15-.83c-6.47-.92-10.11,1.78-9.8,8.32.29,6.35-2,11.85-4.51,17.27-1.67,3.64-4.46,6.78-6.76,10.14a27,27,0,0,1-2.86,4,58.34,58.34,0,0,1-5.88,5.11c-1.74,1.32-3.76,2.27-5.52,3.57a29.16,29.16,0,0,1-17.1,6,41.9,41.9,0,0,1-6.53,0,12.9,12.9,0,0,1-9.87-7.06c-2.28-4.21-3.63-8.49-2.35-13.48,3.05-11.82,10.45-20,20.8-25.85,1.42-.8,2.87-1.55,4.22-2.46,1.17-.8,2.16-1.89,1.61-3.47s-2-1.76-3.44-1.62c-2.74.27-5.47.69-8.21,1-3.29.39-6.61.66-9.89,1.14-4.08.61-8.13,1.39-12.2,2.08-4.93.82-9.86,1.69-14.81,2.42-9.28,1.36-18.58,2.58-27.85,4-5.44.82-10.84,2-16.28,2.79-4.14.61-8.34.93-12.51,1.37-8.16.88-16.34,1.55-24.46,2.69-4.63.65-9.14,2.1-13.71,3.14-7.63,1.72-15.22,3.88-22.94,4.95-5.64.79-11,2.51-16.48,3.65a13.89,13.89,0,0,0-9.28,6.56,72.8,72.8,0,0,1-12,14.88c-1.73,1.66-2.78,4-4.39,5.83-7.75,8.71-15.68,17.25-23.34,26-3.3,3.78-6.38,7.72-10.55,10.64A9.88,9.88,0,0,0,58,210a35.72,35.72,0,0,1-10.85,10c-4.39,2.77-8.56,5.93-13.08,8.46a22.84,22.84,0,0,1-14.31,2.93c-2.05-.27-4.12-.33-6.19-.44a7.38,7.38,0,0,1-5.78-3C6,225.52,4,223.22,2.42,220.69A16.8,16.8,0,0,1,.09,209.93ZM297.25,109.48c3.26,0,6.52-.18,9.77,0a43,43,0,0,0,22.06-4.36,13.8,13.8,0,0,0,7.62-14.82,4.09,4.09,0,0,0-2.07-2.76,3.57,3.57,0,0,0-3,1.12,74,74,0,0,1-12.34,10.69,16.85,16.85,0,0,1-22-2.06c-2.7-2.92-5.19-3.46-8.53-1.35-4.52,2.85-8.77,2.89-13.08-.32a5.51,5.51,0,0,0-5.86-.51,56.42,56.42,0,0,1-9.49,3.57,40.83,40.83,0,0,1-9.83.71,8.08,8.08,0,0,1-6.39-3.54,11.21,11.21,0,0,0-8.9-4.86,7.78,7.78,0,0,1-5.1-2.54c-3.53-3.55-4.19-8-4.06-12.68a64.35,64.35,0,0,1,1-7.25c.18-1.29.3-2.84-1.1-3.24a5.18,5.18,0,0,0-3.39.7,9.38,9.38,0,0,0-2.25,2.24c-3.51,3.92-6.94,7.92-10.54,11.75a21.39,21.39,0,0,1-4.8,3.89c-5.58,3.22-11.16,6.47-16.95,9.27-4.79,2.32-9.87,4-15.35,3.94a9.47,9.47,0,0,1-6.22-2.27,20.28,20.28,0,0,1-6.87-10.32,13.88,13.88,0,0,0-1.15-3.16c-1-1.86-3-2.09-4.33-.47a13.76,13.76,0,0,0-2,3.38c-2.41,5.51-4.67,11.09-7.15,16.57A63.36,63.36,0,0,1,141,107.9q-4.29,7-8.74,14c-1.83,2.84-3.88,5.54-5.66,8.42a3.11,3.11,0,0,0-.21,2.75,3.57,3.57,0,0,0,2.69,1.15,16.77,16.77,0,0,0,4-.93c6.17-1.7,12.26-3.69,18.5-5.05,9.54-2.09,19.17-3.81,28.78-5.55,5.73-1,11.5-1.9,17.26-2.71,8.74-1.23,17.5-2.32,26.25-3.51,6-.83,12-1.8,18-2.58,7.27-.94,14.58-1.54,21.82-2.64C274.85,109.56,286,108.51,297.25,109.48ZM8.79,208.05c0,4.19,1.76,9.49,3.73,11.78,1.82,2.12,4,3.74,7,3.47,6.27-.56,12.26-2,17.24-6.18,3.56-3,7.22-5.84,10.59-9q9.4-8.91,18.5-18.13c4.17-4.23,8.11-8.69,12.16-13q9-9.69,18-19.37a46.44,46.44,0,0,0,3.76-3.94c.57-.78,1-2.39.59-3s-2-1-3-1.12a6,6,0,0,0-2.3.72c-4.6,1.65-9.18,3.33-13.78,5-5.48,2-11,3.87-16.46,5.8a17.3,17.3,0,0,1-2,.65c-7.86,1.69-14.93,5.44-22.18,8.65a30.55,30.55,0,0,0-8.21,5.55C26.8,181.07,21.36,186.52,16,192,11.41,196.77,9.57,202.79,8.79,208.05Zm284.1-47.49c.14,0,.65,0,1.14-.11a8.69,8.69,0,0,0,1.84-.36c7.47-2.82,14.9-5.85,20.23-12.09a85.29,85.29,0,0,0,9-12.42c2.12-3.64,3.35-7.81,4.89-11.78a19.15,19.15,0,0,0,1.24-4.5c.45-3.62-1.83-6-5.47-5.58a12.83,12.83,0,0,0-4.3,1.2c-6.35,3.12-12.71,6.23-18,11.14a58.92,58.92,0,0,1-5.8,5.05,38.21,38.21,0,0,0-10,11.29,14.78,14.78,0,0,0-1.31,14C287.51,159.33,289.32,160.6,292.89,160.56ZM391,89.49l.5.21c-.07,4.92,2.92,7.31,7.7,6a15.32,15.32,0,0,0,4.68-1.88c5.29-3.61,10.31-7.58,14.28-12.67a17.38,17.38,0,0,0,2.71-5.3c.82-2.57-.43-4.72-2.91-5.77-5.74-2.43-14.29-.34-18.15,4.57a88.52,88.52,0,0,0-6,8.41A48.52,48.52,0,0,0,391,89.49Zm-80,7.16c1.6-.67,4.31-1.25,6.33-2.76,4.21-3.12,8.12-6.67,12-10.2a9.73,9.73,0,0,0,2.27-3.61c1-2.44,0-4.31-2.5-5.15a30.22,30.22,0,0,1-3.56-1.16c-3.47-1.68-6.79-1.1-9.86.8a39.45,39.45,0,0,0-11.33,11.11,6.89,6.89,0,0,0-.5,7.5C305.14,95.55,307.44,96.35,311,96.65Zm-55.58-4c4.92-.66,10-1.75,14.07-5.13a16.44,16.44,0,0,0,3.67-4.67,4.55,4.55,0,0,0-.71-5.57,9,9,0,0,0-11.75-1.84c-.75.45-1.51.9-2.25,1.37a22.37,22.37,0,0,0-8.3,9.49c-1.49,3.1-.19,5.49,3.16,6.11C253.91,92.56,254.54,92.59,255.4,92.68ZM374.84,70.85c-.06-3-2.26-4.09-4.44-2.73a20.53,20.53,0,0,0-6.91,8A3,3,0,0,0,363.9,79a3.29,3.29,0,0,0,3,.25,24.44,24.44,0,0,0,5.48-4.19A18.23,18.23,0,0,0,374.84,70.85Z"/><path d="M258.18,201c0-2.2-.05-4.39,0-6.58.1-3.8,1.48-5.54,5.07-6.78,4.61-1.58,9.19-3.25,13.79-4.87,1.77-.62,3.59-1,5.2.29s1.72,3.31,1.25,5.19c-.83,3.34-2.08,6.59-2.69,10a23.51,23.51,0,0,0-.12,7.58c.49,3.33,3.05,4.31,6,2.68a12.62,12.62,0,0,0,5.45-6.06c1.34-3,2.24-6.11,3.52-9.1a73.74,73.74,0,0,1,4.31-8.9c1.16-1.91,3.08-2.15,5.18-1.35a3.61,3.61,0,0,1,2.54,4.59,19.53,19.53,0,0,1-1.3,3.72c-1.9,4-1.19,7.86.26,11.68.95,2.5,3.13,3.23,5.54,2.05a12.62,12.62,0,0,0,3-2c2.87-2.62,5.68-5.31,8.46-8,2-2,2.4-4.22,1.81-7-1.25-6-1-11.75,4.1-16.22,2.07-1.82,4-3.75,6.16-5.5a5.92,5.92,0,0,1,6.55-.74,32.8,32.8,0,0,1,3,1.5,7.21,7.21,0,0,1,2.39,10.8,29.16,29.16,0,0,0-2.31,3c-.43.84-.83,2.3-.41,2.83a3.69,3.69,0,0,0,2.91.92,6.92,6.92,0,0,0,3-1.5c3.78-2.79,7.43-5.76,11.27-8.44a72.09,72.09,0,0,1,7-4,1.69,1.69,0,0,1,1.07-.3c3.49.86,7,1.63,10.4,2.77.72.24,1.34,1.85,1.35,2.84a18.22,18.22,0,0,1-.84,4.38c-.84,3.52-1.88,7-2.48,10.55a4.79,4.79,0,0,0,1.21,3.64c1.17,1.17,2.67.27,4-.46,7.78-4.33,11.52-11.56,14.14-19.62.88-2.73,1.9-5.42,2.9-8.12,1.42-3.84,1-5.19-2.14-7.82a3.51,3.51,0,0,1-1.29-2.56c.08-.58,1.49-1.36,2.32-1.38,4.68-.12,7-2.67,8.42-6.92,1.95-5.94,4.35-11.72,6.5-17.59.56-1.53.77-3.19,1.38-4.68a15.86,15.86,0,0,1,2.35-4.2,4.06,4.06,0,0,1,5.26-1.1,4.37,4.37,0,0,1,2.19,5c-1.18,5.06-2.23,10.15-5,14.72-1.64,2.73-2.9,5.69-4.31,8.56a3.82,3.82,0,0,0,0,4.11c1,1.41,2.45,1.58,4,1.4,1.81-.22,3.62-.43,5.43-.53a7,7,0,0,1,2.58.33c1.66.58,2.88,1.69,2.74,3.6a3.11,3.11,0,0,1-3.12,3,65.84,65.84,0,0,1-9.73,0c-3.9-.35-6.78.81-8.13,4.51-2.09,5.75-4,11.59-5.62,17.5-1.25,4.64,1.71,7.46,6.44,6.48A26.43,26.43,0,0,0,416.9,187c5.29-2.44,10.55-5,15.72-7.66,2-1.06,3.72-2.74,5.67-4a16,16,0,0,1,4.48-2.18,3.84,3.84,0,0,1,4.29,2c.89,1.47.47,2.91-.43,4.23a23.6,23.6,0,0,1-10.32,8.2c-6.23,2.78-12.6,5.24-18.85,8a13.77,13.77,0,0,1-12.14-.24c-1.58-.76-3.13-1.6-4.74-2.28-3.09-1.32-5.15-.76-7,2-2.81,4.36-7.09,6.63-11.74,8.3a7,7,0,0,1-4,0,25.76,25.76,0,0,1-5.09-2.36c-2.45-1.35-3.79-1.33-5.65.78a45.49,45.49,0,0,1-10.31,9,10.74,10.74,0,0,1-7.7,1.72,6.85,6.85,0,0,1-6-8.08c.31-2.3.73-4.58,1-6.88a9.06,9.06,0,0,0-.06-2.8c-.45-2.25-2-3.19-4.19-2.38-4.45,1.66-8.44,3.84-11.3,8-3.44,5-7.33,9.67-12.78,12.8-3.38,1.94-7.24,2-10.34-.46-1.37-1.08-2.59-2.37-3.89-3.54-2.29-2.05-4.32-1.94-6.33.4-1.06,1.24-2,2.58-3,3.86a13.8,13.8,0,0,1-1.95,2.27c-3,2.42-6.29,4.47-10.14,2.77-4-1.77-6-5.37-6.37-9.73A47.32,47.32,0,0,1,274,203a58.13,58.13,0,0,0,.23-6.18c-.19-2.78-2-3.92-4.74-3.23-3.19.82-4.63,3.3-4.63,6.81,0,8.82.11,17.68-.51,26.47-.32,4.48-1.84,9-3.36,13.25-1.31,3.7-4.49,6.12-7.68,8.28a55.13,55.13,0,0,1-5.2,3c-4.51,2.39-8.94.67-10.47-4.23a42.86,42.86,0,0,1-1.27-19.72c.49-3.09.79-6.22,1.13-9.33a14.44,14.44,0,0,0,0-2.63,3.14,3.14,0,0,0-2.08-3.07c-1.54-.5-2.66.3-3.59,1.43-.2.24-.36.51-.55.76-2,2.66-3.87,5.39-6,7.94-2.69,3.24-6.1,3.71-9.77,1.6-4.25-2.45-5.65-2.13-9.13,1.57a84.45,84.45,0,0,1-6.82,6.42,18.78,18.78,0,0,1-4.31,2.63,6.46,6.46,0,0,1-9.31-6.22,15.61,15.61,0,0,1,2-7.74c1-1.64,1.93-3.49.35-5.21a4.17,4.17,0,0,0-5.42-.46,104.3,104.3,0,0,0-11.36,7.92c-4.24,3.5-7.87,7.77-12.22,11.12-4.8,3.69-10.06,6.8-15.22,10-6.17,3.82-13,6.15-19.86,8.41-1.84.61-3.78.91-5.66,1.38-5.53,1.39-11,2.9-16.58,4.15a58,58,0,0,1-8.53,1.09c-4.49.3-9,.3-13.49.62a16,16,0,0,1-9.23-1.91,4.51,4.51,0,0,1-2.54-4.45c.15-3.82,1.41-7,4.9-9,3.06-1.71,6.07-3.56,9.27-5a34.79,34.79,0,0,0,14.23-11.68,113.18,113.18,0,0,1,11.66-13.22C115,207.8,122.11,201.28,129,194.5c2.12-2.1,3.74-4.71,5.83-6.84,7-7.12,14-14.14,21.1-21.18,2.35-2.34,4.85-4.53,7.12-6.94a62,62,0,0,0,3.85-5.07c1.24-1.65,2.38-3.39,3.75-4.91a6,6,0,0,1,5.68-1.78c3.4.55,5.22,3.33,4.19,6.62a7.29,7.29,0,0,1-1.56,2.95c-2.59,2.63-5.35,5.08-8,7.64s-5.35,5.09-7.88,7.77c-4,4.23-7.91,8.56-11.83,12.87a12.38,12.38,0,0,0-1.93,2.53c-.95,1.76-.09,3.3,1.89,3.51a6.12,6.12,0,0,0,2-.13,37.1,37.1,0,0,1,14.77-.12,14.77,14.77,0,0,1,11.28,8.44,9.62,9.62,0,0,1,.57,4.4c-.15,3.94,1.83,5.83,5.56,4.61,2.39-.78,4.54-2.31,6.79-3.51,1.2-.65,2.38-1.35,3.59-2,3-1.58,6-3.09,8.92-4.72,1.36-.76,2.51-2,3.92-2.56a12.52,12.52,0,0,1,3.94-.65,44.88,44.88,0,0,0,5.33-.26c2.59-.52,4,0,4.36,2.61.65,4.22,1,8.49-.94,12.54a3.93,3.93,0,0,0-.62,1.76,3.54,3.54,0,0,0,.7,2.33,2.82,2.82,0,0,0,2.4.3,5.84,5.84,0,0,0,2.54-1.84c3.6-4.82,7.24-9.61,10.58-14.6,2.59-3.89,3.21-8.31,2.61-13a79.29,79.29,0,0,1,1.06-25.62,118.18,118.18,0,0,1,4.15-16.16,33.55,33.55,0,0,1,5.66-9.86c3.76-4.59,9.15-3.32,10.62,2.42.9,3.54.76,7.35,1.49,11,1.65,8.1-.73,15.81-1.91,23.63a8.93,8.93,0,0,1-1.36,3.27c-2.48,4-5.07,7.91-7.59,11.89a44.46,44.46,0,0,0-6.67,19c-.45,4-.53,8-.67,12-.21,6-.32,12-.49,18,0,1-.12,2-.11,3,0,1.76.29,3.48,2.2,4.18s3.49-.24,4.62-1.68c3.12-4,5.28-8.35,5.44-13.54.08-2.25.25-4.51.52-6.75.3-2.54.83-5.07,1.13-7.61.44-3.79.76-7.6,1.13-11.39Zm-85.33,6.94c0-4.67-2.13-7.74-5.62-8.48-2.51-.53-5-1-7.59-1.34a17.78,17.78,0,0,0-10.32,1.24c-4.57,2.16-9,4.69-13.52,6.9-2.33,1.14-4.79,2.59-7.25,2.73a12.72,12.72,0,0,0-9.3,4.5c-2.65,2.92-5.51,5.64-8.32,8.41-1.52,1.49-3.23,2.8-4.64,4.39a3.07,3.07,0,0,0-.67,2.64c.3.65,1.58.92,2.49,1.16A3.91,3.91,0,0,0,110,230c3.52-.91,7.11-1.63,10.51-2.86,6.65-2.41,13.25-4.88,20.2-6.37,8.45-1.81,16.82-4,25.22-6.08a17.94,17.94,0,0,0,2.86-.91A6.27,6.27,0,0,0,172.85,207.94ZM87.7,253.83c5.48-1.29,11-2.44,16.41-3.91,4.53-1.22,8.93-2.88,13.43-4.2s8.84-2.31,13.22-3.59a28.87,28.87,0,0,0,5-2.1c3.52-1.78,7-3.65,10.46-5.52,2.81-1.52,5.63-3,8.37-4.66a10,10,0,0,0,2.82-2.42c1.2-1.59.41-3.3-1.56-3.26a21,21,0,0,0-5.11,1c-1.86.53-3.64,1.34-5.5,1.89-5.93,1.77-11.86,3.57-17.84,5.17-6.4,1.71-12.84,3.34-19.31,4.76a59.07,59.07,0,0,0-18,6.88,42.39,42.39,0,0,0-5,3.67c-1.26,1-2.21,2.36-1.48,4.1S86,253.53,87.7,253.83ZM350,199.46c0,2.72,1.61,4.07,3.83,3.51a10.66,10.66,0,0,0,2.39-1.07,33.37,33.37,0,0,0,9.34-8.33c2.35-2.9,5-5.62,6.07-9.39.38-1.36.85-2.75-.38-3.85s-2.76-.56-4,.25c-3.94,2.66-7.92,5.26-11.68,8.15C352.05,191.49,350.92,195.68,350,199.46ZM214,206.75c-.38-.61-.74-1.89-1.42-2.09a4.6,4.6,0,0,0-3.45.31q-5.47,3.65-10.63,7.74a17.16,17.16,0,0,0-5.29,8.29c-.89,2.66.94,4.56,3.66,3.8a14.59,14.59,0,0,0,4.06-1.89c5.52-3.57,9.23-8.75,12.44-14.34A12.79,12.79,0,0,0,214,206.75Zm41.88-50.19c-.26-2.18-.44-4.36-.81-6.51-.23-1.35-.58-2.93-2.31-3s-2.07,1.51-2.5,2.82a5.53,5.53,0,0,0-.24.91c-1.19,6.72-2.39,13.44-3.55,20.18a4.79,4.79,0,0,0,0,2.41c.42,1.07,1,2.47,1.91,2.86,1.38.62,2.25-.75,2.75-1.93C253.51,168.62,255.86,162.93,255.83,156.56Zm84.37,21.73c0-2.1-1.24-3.23-2.89-3-2.27.27-5.57,3.41-5.58,5.66a4.3,4.3,0,0,0,1.29,3,3.41,3.41,0,0,0,3.07.31C338.55,182.94,339.57,180.5,340.2,178.29Z"/></g></g></svg>