<svg xmlns="http://www.w3.org/2000/svg" viewBox="0 0 380.67 210.73"><defs><style>.cls-1{fill:#fff;}</style></defs><title>Asset 3</title><g id="Layer_2" data-name="Layer 2"><g id="Layer_1-2" data-name="Layer 1"><path class="cls-1" d="M.07,169.85c-.4-4.19,1.07-7.9,2.59-11.73,2.63-6.61,7.48-11.2,12.74-15.57,3.23-2.68,6.37-5.48,9.6-8.16a14.2,14.2,0,0,1,3.31-2.14c5.89-2.57,11.69-5.37,17.94-7.07,3.86-1.05,7.55-2.7,11.39-3.81,9-2.59,17.9-5.18,26.94-7.41a14.49,14.49,0,0,0,9.29-6.52c2.82-4.45,5.57-9,8.34-13.43.59-1,1.21-1.87,1.76-2.84,1.72-3,3.41-6.09,5.12-9.13,1.81-3.22,3.61-6.44,5.44-9.65,5.22-9.14,10.61-18.2,15.59-27.48,1.87-3.48,2.81-7.47,4.12-11.24,2.07-6,4.08-12,6.14-18a9.64,9.64,0,0,1,1-1.9,3.55,3.55,0,0,1,4-1.85,4.1,4.1,0,0,1,3.32,3.83,8.47,8.47,0,0,1-1.1,5c-2.63,4.44-4.05,9.36-5.67,14.22-1.41,4.22-3.38,8.25-5.09,12.37-1.45,3.51-3.33,7-3.39,10.82-.07,4,.73,8,3.39,11.26,2.14,2.62,5.26,3,9,1.43a68.37,68.37,0,0,0,16.56-9.53c4.38-3.52,8.5-7.36,12.94-10.79,7-5.39,11.76-12.34,15.33-20.27,1-2.31,2.44-4.45,3.53-6.73,1.64-3.43,3.14-6.93,4.74-10.37A8.59,8.59,0,0,1,200.25,11c1.5-1.68,2.69-1.94,4.44-1.16,2.12.95,3.15,2.26,2.57,4.4a30.69,30.69,0,0,1-2.8,6.33c-3.55,6.65-7.2,13.26-10.8,19.89a4.11,4.11,0,0,0-.34.84c-1.35,4.78-2.85,9.51-4,14.34a16.46,16.46,0,0,0,.46,9.29c1.09,3.16,3.9,3.9,6.24,1.52a18.88,18.88,0,0,0,2.77-3.8c3.3-5.69,8.4-8.79,14.62-10.26,2.8-.65,5,.73,7.11,2.35.6.46,1.16,1,1.78,1.42,1.65,1.12,2.92.83,3.91-.92a12.92,12.92,0,0,0,.85-2.11c.73-2.16,1.37-4.36,2.16-6.49a13.69,13.69,0,0,1,1.61-3.08,3.34,3.34,0,0,1,3.71-1.5c1.59.4,2,1.73,2.27,3.12.53,3.06-.45,5.78-1.86,8.44C232.6,58,230.31,62.47,228,66.94a7.05,7.05,0,0,0-.67,2.16c-.37,2.55.93,4,3.49,3.88a10.73,10.73,0,0,0,8.2-4.37c2.36-3.1,4.4-6.44,6.69-9.59a13.74,13.74,0,0,1,7.5-5.41c2.53-.72,4.9-1.74,7.65-1.75,3.28,0,5.58,1.5,7.62,3.75.44.49.77,1.07,1.19,1.58,1.27,1.57,2.71,1.54,3.57-.29C274.65,54,275.81,51,277,48c.45-1.12.67-2.35,1.16-3.45a4,4,0,0,1,4-2.25A3.19,3.19,0,0,1,285,45.19a8.19,8.19,0,0,1-.29,3.85c-1.24,3.32-2.9,6.48-4.08,9.82-1.55,4.41-3.59,8.74-3.45,13.6,0,1.24,0,2.51,1.21,3.24s2.34.17,3.39-.54a12.73,12.73,0,0,0,5.3-7.89c.75-3.16,1.39-6.32,3-9.2a32.11,32.11,0,0,1,9.25-10.35c4.28-3,8.43-1.53,10.23,3.42A8,8,0,0,1,308.38,59a32.47,32.47,0,0,1-10.94,9.47,9.61,9.61,0,0,0-4.36,4.07c-.6,1.2-1,2.43,0,3.57a3.06,3.06,0,0,0,3.73.91,13.52,13.52,0,0,0,4-2.42c3.05-3,5.94-6.08,8.86-9.17,2.72-2.86,5.27-5.9,8.14-8.61s6-5.41,10.11-6.54a13.92,13.92,0,0,1,7.63.2c1.27.35,2.49.86,3.75,1.25,2,.59,3.24,0,3.78-1.92.65-2.33,1.05-4.74,1.5-7.13.94-4.93,2-9.81,4.54-14.25a66.43,66.43,0,0,0,3.17-7c1.12-2.56,2.29-5.09,3.28-7.69s1.61-5,2.5-7.48a29.89,29.89,0,0,1,2-4.57,3,3,0,0,1,3.34-1.6,3.75,3.75,0,0,1,2.54,3.28,16.54,16.54,0,0,1-1,7.16c-2.15,5.74-2.81,11.81-3.8,17.8a33.26,33.26,0,0,1-1.41,5.87c-1.11,3.1-2.43,6.12-3.72,9.15-.57,1.35-1.25,2.66-1.91,4-2.44,4.84-5,9.64-7.25,14.56a10.55,10.55,0,0,0-.7,4.72,2.62,2.62,0,0,0,3.24,2.58,11.18,11.18,0,0,0,3.62-1c6.72-3.55,13.36-7.22,20.08-10.76a16.88,16.88,0,0,1,4.83-1.71c2.37-.42,3.33,1,2.63,3.31-.91,3-3.28,4.4-5.72,5.78C371,66.86,367.24,69,363.4,71c-5.12,2.6-10.52,4.27-16.37,3.78a12.62,12.62,0,0,1-3.21-.86A5.94,5.94,0,0,0,337.31,75a36.59,36.59,0,0,1-4,3.52,31.15,31.15,0,0,1-13.84,4.7c-2.31.28-5.88-2.36-7.11-5-.15-.32-.26-.66-.39-1-1.32-3.16-2.9-3.63-5.6-1.56-1.36,1-2.64,2.21-3.93,3.35-2.43,2.14-4.91,4.38-8.45,3.65-1.93-.4-3.71-1.53-5.6-2.19-1.69-.6-3.44-1.46-5.15-1.42-3.18.08-5.18,2.67-6.21,5.52a2.13,2.13,0,0,0,1.91,3,37.31,37.31,0,0,0,5.59-.07c1.46-.06,2.93-.17,4.39-.27,3.58-.24,7.16-.57,10.74-.72,4-.16,8-.11,12-.26a13.3,13.3,0,0,0,4.32-.7,17.49,17.49,0,0,1,7.46-.89c9.64.41,19.08-1.33,28.57-2.49,6-.73,12-1.81,18-2.65a12.82,12.82,0,0,1,3.6.16,3.15,3.15,0,0,1,2.83,2.6A3.79,3.79,0,0,1,374.42,86a10.16,10.16,0,0,1-3.79.9,42.07,42.07,0,0,0-11.29,1.36,3.94,3.94,0,0,1-.9.15c-4.4.23-8.8.37-13.19.71-4.54.34-9.07.89-13.61,1.3-3.58.32-7.16.56-10.74.83l-19.22,1.42-.76,0c-4.24.11-8.48.34-12.72.29a82.76,82.76,0,0,1-8.3-.73c-3.06-.35-5.34,1-6.12,4-.45,1.69-.4,3.5-.69,5.24a50.8,50.8,0,0,1-1.2,6c-1.95,6.69-6.5,11.86-10.42,17.37-1.15,1.62-3.07,2.72-4.72,3.95-1.3,1-2.77,1.7-4.08,2.65a24.49,24.49,0,0,1-13.52,4.84c-3,.15-5.93.64-8.63-.86a13.61,13.61,0,0,1-4.22-3.31,15.2,15.2,0,0,1-2.89-13.6c1.07-4.34,3.37-7.87,6.09-11.26a33.09,33.09,0,0,1,12.4-9.81,6.2,6.2,0,0,0,2.16-1.64,2.28,2.28,0,0,0,.52-1.87,2.12,2.12,0,0,0-1.66-.95,41.37,41.37,0,0,0-4.84.3c-3.32.33-6.66.57-10,1.08-4.1.63-8.15,1.57-12.25,2.24-3.89.62-7.81,1-11.71,1.6-4.45.63-8.89,1.37-13.34,2-4.11.57-8.24,1-12.35,1.57a30.3,30.3,0,0,0-3,.57c-7.62,1.76-15.45,2-23.14,3.24-5.58.91-11.24.81-16.8,2.39-8.08,2.29-16.39,3.75-24.61,5.53-4.45,1-8.93,1.77-13.36,2.8a11.66,11.66,0,0,0-7.6,5.18,61.17,61.17,0,0,1-9.72,12c-1.18,1.15-1.89,2.76-3,4-3.17,3.69-6.41,7.31-9.63,10.95-4.33,4.89-8.65,9.79-13,14.64-1.12,1.24-2.43,2.29-3.61,3.46-1.54,1.52-3,3.1-4.57,4.62a76.44,76.44,0,0,1-5.93,5.61c-2.84,2.21-5.93,4.08-8.87,6.16a24.92,24.92,0,0,1-19.21,4.25c-1.84-.31-3.9-.07-5.23-1.64-3.67-4.32-7.75-8.48-7.14-14.87C.09,170.46.07,170.15.07,169.85Zm205.25-89a8.09,8.09,0,0,1-7.76-2.8c-2-2.59-4.6-3.58-7.63-4.19a8,8,0,0,1-3.67-1.92c-3.3-3.05-3.84-7.08-3.48-11.32.13-1.61.47-3.22.5-4.83,0-.81-.35-2.22-.76-2.31a3.63,3.63,0,0,0-2.69.67,27.47,27.47,0,0,0-2.73,3c-3.23,3.41-6.41,6.89-9.81,10.13a21.8,21.8,0,0,1-5,3.17c-3.88,2.06-7.77,4.13-11.77,6a24.94,24.94,0,0,1-6.66,2c-3.44.51-7,.94-9.88-1.9a16.63,16.63,0,0,1-4.49-6.4,28.32,28.32,0,0,0-1.38-3.7c-.81-1.68-2.22-1.88-3.35-.45A16,16,0,0,0,123,69.22c-2.41,5.23-3.89,10.89-7.18,15.74-.73,1.08-1.14,2.37-1.83,3.49-2,3.32-4.09,6.63-6.22,9.89-1.57,2.42-3.33,4.72-4.88,7.16-1.09,1.72-.36,2.83,1.69,2.76a9.4,9.4,0,0,0,2.24-.33c4.26-1.16,8.47-2.5,12.75-3.52,6.6-1.57,13.21-3.15,19.89-4.31,7.83-1.36,15.73-2.26,23.59-3.38,5.42-.78,10.82-1.63,16.24-2.36,7.67-1,15.36-2,23-2.94s15.35-2.18,23.06-2.8c5.88-.47,11.82-.23,17.74-.22,2.77,0,5.57.47,8.33.3a36.21,36.21,0,0,0,15.3-4.06c3.59-2,6.19-6.58,5.53-10.62a4.06,4.06,0,0,0-1.64-2.62c-.48-.28-1.79.54-2.5,1.13-2.92,2.43-5.71,5-8.63,7.43a12.93,12.93,0,0,1-11.61,3c-2.54-.57-5.11-.94-6.9-3.13-2.43-3-4.51-3.47-7.8-1.51a8.55,8.55,0,0,1-9.72-.22,5.79,5.79,0,0,0-5.75-.37C213.89,79.24,210.08,81.21,205.32,80.84ZM7.51,168.62a15.42,15.42,0,0,0,2.88,9c1.54,1.89,3.51,3.21,6,2.93a26.55,26.55,0,0,0,15.8-7.06c4.18-4,8.65-7.63,12.81-11.62s8.11-8.07,12-12.24,7.37-8.34,11.17-12.41,7.82-8.09,11.73-12.12c.18-.19.43-.36.49-.58.22-.81.78-2.07.45-2.38a3,3,0,0,0-2.53-.59c-3.15.94-6.24,2.1-9.34,3.2-5.86,2.09-11.63,4.49-17.6,6.22a116.77,116.77,0,0,0-19,7.62,30.71,30.71,0,0,0-6.1,4.21c-2,1.71-3.86,3.7-5.74,5.61-3,3-6.08,5.94-8.8,9.18S8,165.14,7.51,168.62ZM267.79,96.45c-.12-3-2.13-4.75-5-3.89a34.62,34.62,0,0,0-6.67,2.9,78.21,78.21,0,0,0-8.62,5.39c-2.68,2-4.95,4.5-7.61,6.51a27.71,27.71,0,0,0-6.93,8.35A11.08,11.08,0,0,0,231.9,126c1.06,2.75,2.59,3.91,5.49,3.69,3.57-.28,6.48-2.22,9.6-3.66,7.35-3.39,12.15-9.34,15.82-16.25a101.27,101.27,0,0,0,4.35-10.53A17.36,17.36,0,0,0,267.79,96.45ZM333.24,56c-3.89.61-7.21,2-9.68,4.91A46.84,46.84,0,0,0,319,67.35a13.87,13.87,0,0,0-1.88,4.88c-.55,3.77,2.16,6.11,5.81,5a21.65,21.65,0,0,0,5.3-2.52,35.35,35.35,0,0,0,4.87-3.87c2.78-2.52,5.58-5,7-8.7.86-2.3.11-4.2-2.2-5A43.1,43.1,0,0,0,333.24,56ZM251,77.89a11.66,11.66,0,0,0,6.62-2.71c2.11-1.67,4.29-3.27,6.23-5.11a23.74,23.74,0,0,0,4-4.87c1.1-1.86.26-3.44-1.78-4.18-.91-.33-1.86-.55-2.74-.93a8.21,8.21,0,0,0-7.86.71,28.89,28.89,0,0,0-8.91,8.8,5.18,5.18,0,0,0-.38,5.76A5.45,5.45,0,0,0,251,77.89ZM206.38,74.8c3.07,0,8.67-1.67,10.8-3.5A18.81,18.81,0,0,0,220.71,67a3.41,3.41,0,0,0-.26-3.88A7.13,7.13,0,0,0,212,61a18.86,18.86,0,0,0-8.71,8c-.75,1.33-1.28,2.73-.51,4.17S205.16,74.69,206.38,74.8Zm96.53-17.22c.07-2-1.44-2.87-3-2a13.51,13.51,0,0,0-5.34,6.23,1.94,1.94,0,0,0,.27,1.78,2,2,0,0,0,1.89.29,33.46,33.46,0,0,0,4.83-3.79A8.68,8.68,0,0,0,302.91,57.58Z"/><path class="cls-1" d="M214.39,166.17c0,5.27.12,10.54,0,15.8a37.62,37.62,0,0,1-3.08,12.8,13.65,13.65,0,0,1-5.08,5.73,47.33,47.33,0,0,1-5.19,3.17c-3.69,2-7.51.59-8.81-3.4a30.39,30.39,0,0,1-1.38-13.19c.41-3.42.87-6.83,1.22-10.26a8.33,8.33,0,0,0-.27-2.85c-.52-1.89-2.25-2.31-3.59-.85-.82.88-1.42,2-2.17,2.93-1.16,1.47-2.29,3-3.57,4.33a6.44,6.44,0,0,1-8.17,1.24c-3.23-1.73-4.66-1.2-7.27,1.51a43,43,0,0,1-7.86,6.59c-3.61,2.29-7.94.64-8.54-3a15.34,15.34,0,0,1,.19-5,19.43,19.43,0,0,1,1.4-3.68c.43-1.11.95-2.47-.11-3.23a4.74,4.74,0,0,0-3.23-.56,9.44,9.44,0,0,0-3.14,1.43,47.68,47.68,0,0,0-10,8.13c-5.93,6.16-13,10.75-20.49,14.82a73.45,73.45,0,0,1-21.7,7.64c-3.72.71-7.34,2-11,2.87a25.21,25.21,0,0,1-4.32.67c-4.6.31-9.2.5-13.79.81a11.55,11.55,0,0,1-7.61-2.09,3.73,3.73,0,0,1-1.46-2.2c-.5-3.32.21-6.35,3.24-8.25a81.52,81.52,0,0,1,8-4.44,33.74,33.74,0,0,0,13-11.19,39.71,39.71,0,0,1,3.69-4.21c4.13-4.31,8.25-8.64,12.48-12.86,3.26-3.25,6.79-6.24,10-9.55,4.47-4.62,8.68-9.49,13.11-14.15,2.48-2.6,5.3-4.88,7.73-7.52,3.42-3.71,7.44-6.85,9.92-11.43a6,6,0,0,1,5.74-3.35c3.31.16,5.29,2.92,4.1,6a7.84,7.84,0,0,1-1.66,2.69c-2.17,2.12-4.51,4.06-6.71,6.16-1.93,1.85-3.8,3.77-5.63,5.73-3.11,3.33-6.17,6.71-9.23,10.09a12.41,12.41,0,0,0-1.66,2.16c-.75,1.33-.11,2.53,1.43,2.51,1.76,0,3.52-.46,5.28-.49,4.93-.09,9.87-.17,14,3.18,2.41,1.93,4,4.25,3.9,7.5a9.66,9.66,0,0,0,.05,1.52c.21,1.79,1.23,2.78,3,2.38a26.06,26.06,0,0,0,5.17-2c2-.92,3.86-1.95,5.73-3,2.68-1.54,5.34-3.11,7.93-4.78a6.4,6.4,0,0,1,5-1.06,8.75,8.75,0,0,0,3.43-.27c2.34-.5,3.95.46,3.93,2.83,0,3.41.65,6.9-.92,10.2-.41.88-.64,2.13.44,2.54a3,3,0,0,0,2.54-.58A33.35,33.35,0,0,0,186,168.4c1.68-2.22,3.32-4.48,4.85-6.81a17.83,17.83,0,0,0,2.83-11.71c-.33-4.06,0-8.17-.08-12.26a41.82,41.82,0,0,1,1.92-13c1.32-4.29,1.72-8.92,4.3-12.76a20.21,20.21,0,0,1,4.1-5c2.69-2,6.07-.86,7.26,2.36a22.77,22.77,0,0,1,1,4.89c.38,3,.75,5.93.92,8.91a29.94,29.94,0,0,1-.28,5.59c-.34,2.66-1,5.28-1.32,7.95-.49,4-3,6.94-5,10.11-2.75,4.28-5.51,8.52-6.82,13.51a53.81,53.81,0,0,0-1.45,19.29,20,20,0,0,1-.08,3.63c-.23,2.88-.57,5.75-.77,8.62a5.71,5.71,0,0,0,.46,2.36,2.14,2.14,0,0,0,3.08,1.32,6.56,6.56,0,0,0,2.3-1.88A18.79,18.79,0,0,0,207,182.2a39.94,39.94,0,0,1,.73-7.41,62.25,62.25,0,0,0,1.16-16.74c-.29-4,1.12-5.46,5-6.67,3.18-1,6.29-2.22,9.45-3.29a9.72,9.72,0,0,1,2.65-.56c2.85-.11,4.36,1.67,3.71,4.48-.74,3.15-1.61,6.28-2.47,9.41a9.16,9.16,0,0,0,.38,5.67c.63,1.79,2,2.49,3.73,1.61a8.34,8.34,0,0,0,3.25-2.62,63,63,0,0,0,3.83-7.56c1.3-2.89,2.3-5.93,3.7-8.78.89-1.79,2.51-2.24,4.42-1.81a3.24,3.24,0,0,1,2.67,4.19,15.12,15.12,0,0,1-1,3c-1.42,2.94-1,5.85.12,8.71.89,2.32,2.58,2.94,4.75,1.67a21,21,0,0,0,3.6-2.78c1.86-1.71,3.66-3.5,5.4-5.34,1.31-1.4,1.41-3.06,1.08-5-.86-5-.79-9.92,3.63-13.63,1.58-1.33,3-2.92,4.59-4.19,3.07-2.39,7.12-.7,9.66,1.67,2.22,2.07,2.14,5.74.11,8.49a14.17,14.17,0,0,0-1.51,2.09,2.11,2.11,0,0,0-.05,1.77,2,2,0,0,0,1.71.57,7.46,7.46,0,0,0,2.57-1.24c2.9-2.12,5.68-4.41,8.63-6.45a31.25,31.25,0,0,1,6-3.28,8.5,8.5,0,0,1,3.84-.17,25.66,25.66,0,0,1,3.23.85c3.35.78,4.47,2.72,3.52,6.08-.79,2.82-1.61,5.63-2.28,8.48-.3,1.31-.55,2.89.79,3.78s2.64-.3,3.83-1c5.94-3.5,8.51-9.26,10.43-15.48.45-1.45,1-2.87,1.53-4.29.3-.81.67-1.59.93-2.41a4.35,4.35,0,0,0-1.47-5.16,3.55,3.55,0,0,1-1.32-2.45c.07-1.23,1.36-1.46,2.47-1.54,3.23-.23,5-2.21,6-5.06,1.19-3.45,2.36-6.9,3.57-10.34,1.05-3,2.12-6,3.25-9A8.47,8.47,0,0,1,338,98.44a4,4,0,0,1,4.75-1.33,3.64,3.64,0,0,1,2.08,4.3,96.09,96.09,0,0,1-3.08,10c-1,2.64-2.5,5.1-3.75,7.64a14.57,14.57,0,0,0-.83,2,2.43,2.43,0,0,0,2.35,3.37c.8,0,1.61-.12,2.42-.15a30.7,30.7,0,0,1,4.39-.06,3,3,0,0,1,2.82,3.22,3.09,3.09,0,0,1-3.13,2.75c-2.48.07-5,.1-7.45,0-3.12-.18-5.33.85-6.37,3.76-1.64,4.57-3.15,9.19-4.44,13.87-.91,3.33,1.46,5.65,4.83,4.88a29,29,0,0,0,5.59-1.89c3.88-1.76,7.71-3.61,11.47-5.6,1.74-.91,3.24-2.25,4.89-3.32a14.55,14.55,0,0,1,3.19-1.68,3.4,3.4,0,0,1,3.91,1.35,3.2,3.2,0,0,1,0,4,18.83,18.83,0,0,1-8.17,6.61c-4.95,2.2-10,4.15-15,6.34a12.49,12.49,0,0,1-11.53-.42c-.85-.45-1.72-.89-2.6-1.26-2.37-1-4.11-.59-5.6,1.49a19.75,19.75,0,0,1-7.84,6.09,7.79,7.79,0,0,1-7.31-.08c-.63-.32-1.26-.64-1.89-1-2.08-1.12-2.89-1-4.62.58-1.92,1.79-3.72,3.72-5.77,5.35a17.54,17.54,0,0,1-5,2.85c-5.09,1.77-10.1-1.89-8.78-7.41a29,29,0,0,0,.72-5.42c.13-2.76-1.5-3.86-4-2.8a18.29,18.29,0,0,0-8.36,6.3c-2.67,3.81-5.62,7.41-9.8,9.83-3.56,2.06-7.09,1.91-10.14-.92-.78-.72-1.49-1.53-2.33-2.18a2.78,2.78,0,0,0-4.2.31c-1.2,1.3-2.24,2.75-3.36,4.12a9.19,9.19,0,0,1-5.91,3.44c-4.38.66-8.5-2.91-8.78-7.77a58.62,58.62,0,0,1,.38-7.11,3.58,3.58,0,0,1,.09-.45c.41-2.59-.71-4.87-2.48-5a4.64,4.64,0,0,0-4.75,4.54c0,1.57,0,3.14,0,4.71Zm-89,15.44c-1.22.35-2.24.6-3.24.93-1.45.47-2.85,1.06-4.31,1.49-5.14,1.52-10.28,3.08-15.45,4.48q-7,1.89-14.17,3.47c-6.76,1.48-13.14,3.76-18.54,8.25-1,.81-2,1.73-1.48,3.21s2,1.4,3.22,1.5a2.42,2.42,0,0,0,.76-.05c4-.92,8.12-1.76,12.13-2.83,4.4-1.17,8.74-2.55,13.1-3.87,3.82-1.16,7.78-2,11.41-3.64,4.71-2.08,9.18-4.74,13.71-7.21a23.33,23.33,0,0,0,3.9-2.62,2.47,2.47,0,0,0,.84-2C127.07,182.17,126,182,125.35,181.61Zm14.32-14a5.8,5.8,0,0,0-4.77-6c-2-.42-4-.84-6-1.07a15.89,15.89,0,0,0-4.19.08c-5,.78-9.35,3.22-13.56,5.88-2.46,1.54-4.89,3-8,3a8.47,8.47,0,0,0-6,3c-3.28,3.3-6.67,6.49-9.91,9.83-.7.72-1.49,2-1.28,2.8.34,1.27,1.86,1,2.91.73,3.46-.93,6.91-1.93,10.32-3s6.74-2.56,10.21-3.44c8.15-2.08,16.35-3.9,24.53-5.84a13.93,13.93,0,0,0,2.43-.83A5.23,5.23,0,0,0,139.67,167.66ZM207,126.47c-.37-1.93-.67-3.87-1.17-5.76a1.94,1.94,0,0,0-1.37-1.13c-.38,0-1,.6-1.24,1.08a15.66,15.66,0,0,0-1,3.34c-.88,4.83-1.71,9.67-2.52,14.51a2.94,2.94,0,0,0,0,1.64,14.21,14.21,0,0,0,1.46,2.14c.67-.53,1.65-.92,2-1.62C205.09,136.17,206.89,131.59,207,126.47ZM283.7,161c0,2.51,1.12,3.44,3,2.87a9.13,9.13,0,0,0,2-1c3.77-2.2,6.46-5.53,9-8.95a22.18,22.18,0,0,0,2.86-5.48c.65-1.78-.66-2.84-2.48-2.22a5.9,5.9,0,0,0-1.51.69c-3.07,2.15-6.28,4.13-9.1,6.56C285.17,155.45,284.18,158.43,283.7,161Zm-125,20.64.22.4c1.69-.94,3.47-1.77,5.07-2.85,3.31-2.23,5.42-5.55,7.56-8.82a9,9,0,0,0,1.06-2.18,1.8,1.8,0,0,0-2.18-2.36,4.42,4.42,0,0,0-1.63.76c-2.67,1.93-5.39,3.8-7.94,5.88a12.78,12.78,0,0,0-4.14,6.6C156.21,180.66,157,181.61,158.65,181.61ZM270.94,149c1.87,0,4.63-3.88,3.81-5.53a2.55,2.55,0,0,0-2-1.11c-1.68.07-3.71,2.29-3.94,3.95A2.19,2.19,0,0,0,270.94,149Z"/></g></g></svg>